<svg class="animated" id="freepik_stories-uploading" xmlns="http://www.w3.org/2000/svg" viewBox="0 0 500 500" version="1.1" xmlns:xlink="http://www.w3.org/1999/xlink" xmlns:svgjs="http://svgjs.com/svgjs"><style>svg#freepik_stories-uploading:not(.animated) .animable {opacity: 0;}svg#freepik_stories-uploading.animated #freepik--Folder--inject-3 {animation: 1.5s Infinite  linear floating;animation-delay: 0s;}svg#freepik_stories-uploading.animated #freepik--Cloud--inject-3 {animation: 1.5s Infinite  linear heartbeat;animation-delay: 0s;}            @keyframes floating {                0% {                    opacity: 1;                    transform: translateY(0px);                }                50% {                    transform: translateY(-10px);                }                100% {                    opacity: 1;                    transform: translateY(0px);                }            }                    @keyframes heartbeat {                0% {                    transform: scale(1);                }                10% {                    transform: scale(1.1);                }                30% {                    transform: scale(1);                }                40% {                    transform: scale(1);                }                50% {                    transform: scale(1.1);                }                60% {                    transform: scale(1);                }                100% {                    transform: scale(1);                }            }        </style><g id="freepik--Floor--inject-3" class="animable" style="transform-origin: 250px 345.63px;"><ellipse id="freepik--floor--inject-3" cx="250" cy="345.63" rx="233.47" ry="134.79" style="fill: rgb(245, 245, 245); transform-origin: 250px 345.63px;" class="animable"></ellipse></g><g id="freepik--Shadows--inject-3" class="animable" style="transform-origin: 253.929px 369.865px;"><polygon id="freepik--Shadow--inject-3" points="218.75 456.97 104.56 391.04 292.71 282.76 406.91 348.69 218.75 456.97" style="fill: rgb(224, 224, 224); transform-origin: 255.735px 369.865px;" class="animable"></polygon><path id="freepik--shadow--inject-3" d="M405.59,326.13c-12.21,7.05-12.21,18.48,0,25.53s32,7,44.21,0,12.21-18.48,0-25.53S417.8,319.08,405.59,326.13Z" style="fill: rgb(224, 224, 224); transform-origin: 427.695px 338.886px;" class="animable"></path><path id="freepik--shadow--inject-3" d="M60.15,388.75c-15,8.31-15,21.78,0,30.09s39.33,8.31,54.34,0,15-21.78,0-30.09S75.15,380.45,60.15,388.75Z" style="fill: rgb(224, 224, 224); transform-origin: 87.3219px 403.797px;" class="animable"></path><path id="freepik--shadow--inject-3" d="M172.45,397.89l-75.9-43.82c-3.77-2.18-3.77-5.7,0-7.87l50.32-29.06a16.34,16.34,0,0,1,13.85-.41l81.85,41c3.89,1.94,4,5.28.23,7.45l-56.72,32.75A15.08,15.08,0,0,1,172.45,397.89Z" style="fill: rgb(224, 224, 224); transform-origin: 169.641px 357.462px;" class="animable"></path></g><g id="freepik--Pictures--inject-3" class="animable" style="transform-origin: 72.205px 108.805px;"><g id="freepik--Picture--inject-3" class="animable" style="transform-origin: 72.205px 76.045px;"><g id="freepik--Frame--inject-3" class="animable" style="transform-origin: 72.205px 76.045px;"><polygon points="52.58 106 54.41 107.09 91.83 85.48 90 84.39 52.58 106" style="fill: rgb(250, 250, 250); transform-origin: 72.205px 95.74px;" id="elbatlbyf5sea" class="animable"></polygon><polygon points="90 84.39 54.41 104.94 54.41 67.66 90.01 47.13 90 84.39" style="fill: rgb(255, 255, 255); transform-origin: 72.21px 76.035px;" id="elh1akscwqfrq" class="animable"></polygon><path d="M95.27,40.1,51,65.68v47.37l44.3-25.58ZM91.83,85.48,54.41,107.09V67.66l37.42-21.6Z" style="fill: rgb(240, 240, 240); transform-origin: 73.15px 76.575px;" id="elme2r7gqwwdf" class="animable"></path><polygon points="91.83 85.48 90 84.39 90.01 47.13 91.83 46.06 91.83 85.48" style="fill: rgb(224, 224, 224); transform-origin: 90.915px 65.77px;" id="els9hiix4f9fa" class="animable"></polygon><polygon points="95.27 40.1 93.42 39.04 49.11 64.62 50.97 65.68 95.27 40.1" style="fill: rgb(250, 250, 250); transform-origin: 72.19px 52.36px;" id="el5lqfyvflzmh" class="animable"></polygon><polygon points="49.11 64.62 50.97 65.68 50.97 113.05 49.11 111.99 49.11 64.62" style="fill: rgb(224, 224, 224); transform-origin: 50.04px 88.835px;" id="ell4o7lajg0e" class="animable"></polygon></g><g id="freepik--Land--inject-3" class="animable" style="transform-origin: 72.205px 82.24px;"><polygon points="88.61 83.28 55.8 102.23 55.8 92.75 64 73.81 69.11 78.54 67.28 86.48 78.61 62.25 88.61 73.81 88.61 83.28" style="fill: rgb(240, 240, 240); transform-origin: 72.205px 82.24px;" id="eljuro8tno45" class="animable"></polygon><path d="M68.8,64.66a5.34,5.34,0,0,0-2.42,4.2c0,1.55,1.08,2.18,2.42,1.4a5.33,5.33,0,0,0,2.43-4.2C71.23,64.51,70.15,63.88,68.8,64.66Z" style="fill: rgb(240, 240, 240); transform-origin: 68.805px 67.46px;" id="ellmgdzpy6mxg" class="animable"></path></g></g><g id="freepik--picture--inject-3" class="animable" style="transform-origin: 72.19px 141.565px;"><g id="freepik--frame--inject-3" class="animable" style="transform-origin: 72.19px 141.565px;"><polygon points="52.58 171.53 54.41 172.61 91.83 151.01 90 149.92 52.58 171.53" style="fill: rgb(250, 250, 250); transform-origin: 72.205px 161.265px;" id="eldcr8skl6a7t" class="animable"></polygon><polygon points="90 149.92 54.41 170.47 54.41 133.19 90 112.66 90 149.92" style="fill: rgb(255, 255, 255); transform-origin: 72.205px 141.565px;" id="el6coqv0ucj5t" class="animable"></polygon><path d="M95.27,105.63,51,131.2v47.37L95.27,153ZM91.83,151l-37.42,21.6V133.19l37.42-21.6Z" style="fill: rgb(240, 240, 240); transform-origin: 73.135px 142.1px;" id="el080u7tiar3bl" class="animable"></path><polygon points="91.83 151.01 90 149.92 90 112.66 91.83 111.59 91.83 151.01" style="fill: rgb(224, 224, 224); transform-origin: 90.915px 131.3px;" id="elbgu3yaf3ro7" class="animable"></polygon><polygon points="95.27 105.63 93.42 104.56 49.11 130.14 50.97 131.2 95.27 105.63" style="fill: rgb(250, 250, 250); transform-origin: 72.19px 117.88px;" id="el831033gmkip" class="animable"></polygon><polygon points="49.11 130.14 50.97 131.2 50.97 178.57 49.11 177.51 49.11 130.14" style="fill: rgb(224, 224, 224); transform-origin: 50.04px 154.355px;" id="ellljpjv6siln" class="animable"></polygon></g><g id="freepik--land--inject-3" class="animable" style="transform-origin: 72.205px 147.765px;"><polygon points="88.61 148.81 55.8 167.75 55.8 158.28 64 139.33 69.11 144.07 67.28 152.01 78.61 127.78 88.61 139.33 88.61 148.81" style="fill: rgb(240, 240, 240); transform-origin: 72.205px 147.765px;" id="elucnt9mmpyih" class="animable"></polygon><path d="M68.8,130.18a5.38,5.38,0,0,0-2.42,4.21c0,1.55,1.08,2.17,2.42,1.4a5.34,5.34,0,0,0,2.43-4.21C71.23,130,70.15,129.41,68.8,130.18Z" style="fill: rgb(240, 240, 240); transform-origin: 68.805px 132.982px;" id="els65t4snvf7h" class="animable"></path></g></g></g><g id="freepik--Plant--inject-3" class="animable" style="transform-origin: 430.341px 285.366px;"><g id="freepik--plant--inject-3" class="animable" style="transform-origin: 430.341px 285.366px;"><g id="freepik--Pot--inject-3" class="animable" style="transform-origin: 427.69px 310.997px;"><g id="freepik--pot--inject-3" class="animable" style="transform-origin: 427.69px 310.997px;"><path d="M409.38,341.43c-9.8-10.11-15.55-51.26-6-59.28H452c9.55,8,3.8,49.15-6,59.27l-.27.27-.34.34c-.27.27-.57.53-.88.79l-.24.19c-.24.19-.47.38-.74.56a13.52,13.52,0,0,1-1.26.82c-8.06,4.71-21.13,4.71-29.19,0h0a13.65,13.65,0,0,1-1.27-.82c-.25-.17-.47-.35-.69-.53l-.29-.23A10.69,10.69,0,0,1,410,342l-.39-.38Z" style="fill: rgb(94, 9, 241); transform-origin: 427.69px 315.036px;" id="elh6rh55ndneu" class="animable"></path><g id="el5u99v09d8er"><g style="opacity: 0.7; transform-origin: 427.69px 315.036px;" class="animable"><path d="M409.38,341.43c-9.8-10.11-15.55-51.26-6-59.28H452c9.55,8,3.8,49.15-6,59.27l-.27.27-.34.34c-.27.27-.57.53-.88.79l-.24.19c-.24.19-.47.38-.74.56a13.52,13.52,0,0,1-1.26.82c-8.06,4.71-21.13,4.71-29.19,0h0a13.65,13.65,0,0,1-1.27-.82c-.25-.17-.47-.35-.69-.53l-.29-.23A10.69,10.69,0,0,1,410,342l-.39-.38Z" style="fill: rgb(255, 255, 255); transform-origin: 427.69px 315.036px;" id="elkraaa1fcd1" class="animable"></path></g></g><path d="M447.78,278.92c11.1,6.48,11.1,17,0,23.46s-29.08,6.48-40.17,0-11.1-17,0-23.46S436.69,272.45,447.78,278.92Z" style="fill: rgb(94, 9, 241); transform-origin: 427.697px 290.652px;" id="eltdpbcwgwzva" class="animable"></path><g id="el7dgdbd858hc"><g style="opacity: 0.85; transform-origin: 427.697px 290.652px;" class="animable"><path d="M447.78,278.92c11.1,6.48,11.1,17,0,23.46s-29.08,6.48-40.17,0-11.1-17,0-23.46S436.69,272.45,447.78,278.92Z" style="fill: rgb(255, 255, 255); transform-origin: 427.697px 290.652px;" id="elcujrgy8laug" class="animable"></path></g></g><path d="M442.45,282c8.14,4.76,8.14,12.47,0,17.23s-21.36,4.75-29.51,0-8.15-12.47,0-17.23S434.3,277.28,442.45,282Z" style="fill: rgb(94, 9, 241); transform-origin: 427.691px 290.621px;" id="el2v4rnbvkbsx" class="animable"></path><g id="el6591acnbrs"><g style="opacity: 0.75; transform-origin: 427.691px 290.621px;" class="animable"><path d="M442.45,282c8.14,4.76,8.14,12.47,0,17.23s-21.36,4.75-29.51,0-8.15-12.47,0-17.23S434.3,277.28,442.45,282Z" style="fill: rgb(255, 255, 255); transform-origin: 427.691px 290.621px;" id="elzze2uyj57fm" class="animable"></path></g></g><path d="M412.94,290.21c8.15-4.75,21.36-4.75,29.51,0a13.74,13.74,0,0,1,4.88,4.53,13.74,13.74,0,0,1-4.88,4.53c-8.15,4.75-21.36,4.75-29.51,0a13.74,13.74,0,0,1-4.88-4.53A13.74,13.74,0,0,1,412.94,290.21Z" style="fill: rgb(250, 250, 250); transform-origin: 427.695px 294.74px;" id="elwhbsh8l94qb" class="animable"></path></g></g><g id="freepik--Plants--inject-3" class="animable" style="transform-origin: 439.776px 255.981px;"><path d="M428.81,288.73a32.45,32.45,0,0,0,3.27.41c4.08.18,9.09-1.85,13.58-3.84,3-1.31,7-3.09,8.87-6.16.94-1.51,1.3-3.6.42-5s-3.08-1.91-3.5-3.71c3.14-2.09,7.17-2.2,9.85-5a15.7,15.7,0,0,0,3.67-7.76c.37-1.71.37-4.05-.53-5.38-1.07-1.57-3.24-1.44-5.1-1.24a3.16,3.16,0,0,1-1.44-.08,1.21,1.21,0,0,1-.8-1.16,2.11,2.11,0,0,1,1.16-1.51c1.15-.75,2.38-1.34,3.49-2.16a7,7,0,0,0,2.63-3.27,9,9,0,0,0-.13-5,69.39,69.39,0,0,0-2.25-8c-.22-.63-1.85-7-1.62-7.06-6.51.18-13.2,2.57-19.25,5.67-3.38,1.73-8.19,4.86-9.17,9.24a8.39,8.39,0,0,0,.11,3.67,13.54,13.54,0,0,0,.58,1.54c.12.32.61,1.55-.22,1.14a1.19,1.19,0,0,1-.44-.45L428.78,239a2.75,2.75,0,0,0-1.18-1.14c-1.08-.4-3.64.83-6.09,4a13.69,13.69,0,0,0-2.5,7.52c-.26,4.23,1,8.22,2.15,12.1l-2.9-3c-3.39-3.47-4,4.71-3.9,6.41.32,4.47,2.11,11.07,4.36,14.62C421.34,283.63,424.43,287.08,428.81,288.73Z" style="fill: rgb(94, 9, 241); transform-origin: 439.776px 255.981px;" id="el4o8050eyggf" class="animable"></path><g id="ely7mhji49ivo"><path d="M428.81,288.73a32.45,32.45,0,0,0,3.27.41c4.08.18,9.09-1.85,13.58-3.84,3-1.31,7-3.09,8.87-6.16.94-1.51,1.3-3.6.42-5s-3.08-1.91-3.5-3.71c3.14-2.09,7.17-2.2,9.85-5a15.7,15.7,0,0,0,3.67-7.76c.37-1.71.37-4.05-.53-5.38-1.07-1.57-3.24-1.44-5.1-1.24a3.16,3.16,0,0,1-1.44-.08,1.21,1.21,0,0,1-.8-1.16,2.11,2.11,0,0,1,1.16-1.51c1.15-.75,2.38-1.34,3.49-2.16a7,7,0,0,0,2.63-3.27,9,9,0,0,0-.13-5,69.39,69.39,0,0,0-2.25-8c-.22-.63-1.85-7-1.62-7.06-6.51.18-13.2,2.57-19.25,5.67-3.38,1.73-8.19,4.86-9.17,9.24a8.39,8.39,0,0,0,.11,3.67,13.54,13.54,0,0,0,.58,1.54c.12.32.61,1.55-.22,1.14a1.19,1.19,0,0,1-.44-.45L428.78,239a2.75,2.75,0,0,0-1.18-1.14c-1.08-.4-3.64.83-6.09,4a13.69,13.69,0,0,0-2.5,7.52c-.26,4.23,1,8.22,2.15,12.1l-2.9-3c-3.39-3.47-4,4.71-3.9,6.41.32,4.47,2.11,11.07,4.36,14.62C421.34,283.63,424.43,287.08,428.81,288.73Z" style="fill: rgb(255, 255, 255); opacity: 0.3; transform-origin: 439.776px 255.981px;" class="animable"></path></g><path d="M433.43,266.79a45.08,45.08,0,0,0-7.5-18.27l-.08-.13a.58.58,0,0,1,.14-.75.44.44,0,0,1,.67.08l.08.12a46.86,46.86,0,0,1,7.34,17.08c5.64-16,14.91-32.23,20.29-37.28a.49.49,0,0,1,.73,0,.64.64,0,0,1-.1.81c-5.31,5-14.46,21-20,36.79,9.38-7.31,18.79-6.53,18.89-6.52a.48.48,0,0,1,.4.58.65.65,0,0,1-.33.45.47.47,0,0,1-.24,0c-.09,0-9.91-.83-19.33,7.21-2.5,7.47-4.13,14.79-4.08,20.72a.66.66,0,0,1-.29.55.58.58,0,0,1-.22.08.48.48,0,0,1-.52-.52C429.22,281.84,430.88,274.4,433.43,266.79Z" style="fill: rgb(255, 255, 255); transform-origin: 440.485px 257.894px;" id="elc4gup8r7jzi" class="animable"></path></g><g id="freepik--plants--inject-3" class="animable" style="transform-origin: 418.336px 272.193px;"><path d="M429.12,296.72c-.29.14-2.58.66-2.9.72-3.64.62-8.17-.43-12.25-1.52-2.69-.71-6.31-1.69-8.11-4a3.62,3.62,0,0,1-.55-4c.79-1.32,2.68-1.91,3-3.43-2.87-1.32-6.48-.93-9-2.9a11,11,0,0,1-3.54-5.86,6,6,0,0,1,.3-4.44c.89-1.4,2.84-1.54,4.5-1.6a3.32,3.32,0,0,0,1.29-.24,1.1,1.1,0,0,0,.67-1c-.05-.53-.59-.87-1.08-1.09-1.06-.47-2.17-.8-3.2-1.33a5.22,5.22,0,0,1-2.45-2.35,6.74,6.74,0,0,1,0-4.05,56.12,56.12,0,0,1,1.73-6.78c.18-.53,1.42-5.94,1.21-5.92,5.81-.62,11.86.53,17.37,2.33,3.07,1,7.47,3,8.49,6.43a6.05,6.05,0,0,1,0,3,10.31,10.31,0,0,1-.46,1.32c-.09.27-.49,1.33.24.9a1.16,1.16,0,0,0,.37-.42l2.71-4.17a2.71,2.71,0,0,1,1-1.06c.95-.46,3.28.24,5.57,2.52a9.64,9.64,0,0,1,2.49,5.81c.37,3.39-.58,6.78-1.52,10.07l2.49-2.76c2.91-3.22,3.75,3.35,3.7,4.75a30.44,30.44,0,0,1-3.4,12.38C435.61,291.7,433,294.87,429.12,296.72Z" style="fill: rgb(94, 9, 241); transform-origin: 418.336px 272.193px;" id="eljbo5il8ao" class="animable"></path><g id="el2oqdk17ymbk"><path d="M429.12,296.72c-.29.14-2.58.66-2.9.72-3.64.62-8.17-.43-12.25-1.52-2.69-.71-6.31-1.69-8.11-4a3.62,3.62,0,0,1-.55-4c.79-1.32,2.68-1.91,3-3.43-2.87-1.32-6.48-.93-9-2.9a11,11,0,0,1-3.54-5.86,6,6,0,0,1,.3-4.44c.89-1.4,2.84-1.54,4.5-1.6a3.32,3.32,0,0,0,1.29-.24,1.1,1.1,0,0,0,.67-1c-.05-.53-.59-.87-1.08-1.09-1.06-.47-2.17-.8-3.2-1.33a5.22,5.22,0,0,1-2.45-2.35,6.74,6.74,0,0,1,0-4.05,56.12,56.12,0,0,1,1.73-6.78c.18-.53,1.42-5.94,1.21-5.92,5.81-.62,11.86.53,17.37,2.33,3.07,1,7.47,3,8.49,6.43a6.05,6.05,0,0,1,0,3,10.31,10.31,0,0,1-.46,1.32c-.09.27-.49,1.33.24.9a1.16,1.16,0,0,0,.37-.42l2.71-4.17a2.71,2.71,0,0,1,1-1.06c.95-.46,3.28.24,5.57,2.52a9.64,9.64,0,0,1,2.49,5.81c.37,3.39-.58,6.78-1.52,10.07l2.49-2.76c2.91-3.22,3.75,3.35,3.7,4.75a30.44,30.44,0,0,1-3.4,12.38C435.61,291.7,433,294.87,429.12,296.72Z" style="fill: rgb(255, 255, 255); opacity: 0.5; transform-origin: 418.336px 272.193px;" class="animable"></path></g><path d="M424.26,279.45a38.7,38.7,0,0,1,6.07-15.72l.07-.11a.44.44,0,0,0-.15-.6.43.43,0,0,0-.59.15l-.07.11a40.28,40.28,0,0,0-6,14.72c-5.58-12.31-14.4-24.41-19.36-27.87a.47.47,0,1,0-.54.76c4.9,3.42,13.61,15.37,19.09,27.52a26.67,26.67,0,0,0-17.08-3.07.43.43,0,0,0,0,.84.49.49,0,0,0,.21,0,25.64,25.64,0,0,1,17.49,3.57c2.49,5.78,4.19,11.53,4.34,16.35a.48.48,0,0,0,.28.41.45.45,0,0,0,.2,0,.46.46,0,0,0,.45-.48C428.52,291.17,426.79,285.33,424.26,279.45Z" style="fill: rgb(255, 255, 255); transform-origin: 416.951px 273.263px;" id="el1z49gzh8exv" class="animable"></path></g></g></g><g id="freepik--Character--inject-3" class="animable" style="transform-origin: 247.644px 271.36px;"><g id="freepik--character--inject-3" class="animable" style="transform-origin: 247.644px 271.36px;"><g id="freepik--Chair--inject-3" class="animable" style="transform-origin: 170.759px 276.517px;"><path d="M241.35,364.21l-9.7-80.94-7.93-.4,13.63,81.33h0a1.09,1.09,0,0,0,.53.71,3.14,3.14,0,0,0,2.83.14,1,1,0,0,0,.62-.84Z" style="fill: rgb(38, 50, 56); transform-origin: 232.535px 324.096px;" id="elpxuj5tbn5zc" class="animable"></path><path d="M231.65,283.27l-7.93-.4,2.33,15.35a31.1,31.1,0,0,0,4.7-2.16,4.87,4.87,0,0,0,2.09-1.79Z" style="fill: rgb(38, 50, 56); transform-origin: 228.28px 290.545px;" id="elni75xczukh" class="animable"></path><path d="M126.33,271.4h-7.94l-11.55,76.43h0a1,1,0,0,0,.58.87,3.14,3.14,0,0,0,2.83,0,1.05,1.05,0,0,0,.56-.68h0Z" style="fill: rgb(55, 71, 79); transform-origin: 116.585px 310.218px;" id="elf8aly4glbx7" class="animable"></path><path d="M118.39,271.4l-3.22,21.33a31.53,31.53,0,0,0,6.09,3.73l5.07-25.06Z" style="fill: rgb(38, 50, 56); transform-origin: 120.75px 283.93px;" id="ele066aku6fop" class="animable"></path><path d="M188.32,391.34,180.86,309l-7.92-.4,11.39,82.69h0a1.09,1.09,0,0,0,.53.71,3.12,3.12,0,0,0,2.82.14,1,1,0,0,0,.62-.84Z" style="fill: rgb(55, 71, 79); transform-origin: 180.63px 350.506px;" id="el1jh3hrbse5ki" class="animable"></path><path d="M181.84,320.89l-1-11.85-7.92-.4,1.61,12.78C176.31,322,179.53,321.63,181.84,320.89Z" style="fill: rgb(38, 50, 56); transform-origin: 177.38px 315.172px;" id="elqs911gx2bfj" class="animable"></path><path d="M169.64,246.22H161.7l-11.54,76.43h0a1,1,0,0,0,.57.87,3.14,3.14,0,0,0,2.83,0,1.08,1.08,0,0,0,.56-.68h0Z" style="fill: rgb(38, 50, 56); transform-origin: 159.9px 285.038px;" id="elrezglh6vim8" class="animable"></path><g id="freepik--chair--inject-3" class="animable" style="transform-origin: 167.622px 238.502px;"><path d="M103.48,183.75a44.93,44.93,0,0,0-3.17,13.93c-.9,10.68,2.71,45.26,4.88,60.73h0c3.14,25.84,7,25.89,12.59,30.21,9.63,7.44,37.33,22,46.47,25.63,16.58,6.52,30.14-3.54,40.24-8.53a234.43,234.43,0,0,0,26.77-15.85c2.52-1.84,3.83-3.7,3.8-5.65,0-.78,0-3.95,0-4.77,0-2.5-2.2-5.17-6.84-8.18-8.56-5.55-39.51-23.6-51.5-30.25a.12.12,0,0,0-.1-.09c-9.23-5.6-14.78-43.68-21.17-63.94-.13-.43-.27-.85-.41-1.26s-.23-.63-.33-.94c-.41-1.1-.82-2.11-1.26-3" style="fill: rgb(94, 9, 241); transform-origin: 167.615px 244.086px;" id="elwspzt8ah9l" class="animable"></path><path d="M235.07,279.44c0-2.5-2.2-5.17-6.84-8.18-8.56-5.55-39.51-23.6-51.5-30.25a.12.12,0,0,0-.1-.09c-9.23-5.6-14.78-43.68-21.17-63.94a37.92,37.92,0,0,0-1.34-3.73c0-.09-.08-.18-.11-.27l-.37-.82-.18-.41h0a19.48,19.48,0,0,0-4.26-6.16,9.55,9.55,0,0,0-2.09-1.47c-1-.59-3.22-1.8-3.77-2.12-6.26-3.75-14.49.75-24.73,6.36-6.37,3.5-11.81,7.65-15.12,15.39h0a44.93,44.93,0,0,0-3.17,13.93c-.9,10.68,2.71,45.26,4.88,60.73h0c3.14,25.84,7,25.89,12.59,30.21,9.63,7.44,37.33,22,46.47,25.63,16.58,6.52,30.14-3.54,40.24-8.53a234.43,234.43,0,0,0,26.77-15.85c2.52-1.84,3.83-3.7,3.8-5.65C235.06,283.43,235.07,280.26,235.07,279.44Z" style="fill: rgb(94, 9, 241); transform-origin: 167.625px 238.502px;" id="elrulyj1vn7xl" class="animable"></path><g id="ela7ejbpw6mpt"><path d="M235.07,279.44c0-2.5-2.2-5.17-6.84-8.18-8.56-5.55-39.51-23.6-51.5-30.25a.12.12,0,0,0-.1-.09c-9.23-5.6-14.78-43.68-21.17-63.94a37.92,37.92,0,0,0-1.34-3.73c0-.09-.08-.18-.11-.27l-.37-.82-.18-.41h0a19.48,19.48,0,0,0-4.26-6.16,9.55,9.55,0,0,0-2.09-1.47c-1-.59-3.22-1.8-3.77-2.12-6.26-3.75-14.49.75-24.73,6.36-6.37,3.5-11.81,7.65-15.12,15.39h0a44.93,44.93,0,0,0-3.17,13.93c-.9,10.68,2.71,45.26,4.88,60.73h0c3.14,25.84,7,25.89,12.59,30.21,9.63,7.44,37.33,22,46.47,25.63,16.58,6.52,30.14-3.54,40.24-8.53a234.43,234.43,0,0,0,26.77-15.85c2.52-1.84,3.83-3.7,3.8-5.65C235.06,283.43,235.07,280.26,235.07,279.44Z" style="fill: rgb(255, 255, 255); opacity: 0.25; transform-origin: 167.625px 238.502px;" class="animable"></path></g><path d="M204.49,300.91a235.71,235.71,0,0,0,26.77-15.86c5.74-4.17,5.21-8.44-3-13.79-11.44-7.42-58.09-33.89-58.09-33.89s-59,34.8-56.43,41.23,39,26.31,50.53,30.83C180.84,316,194.39,305.9,204.49,300.91Z" style="fill: rgb(94, 9, 241); transform-origin: 174.367px 274.476px;" id="elnfoc98su5k" class="animable"></path><g id="el33p11cpoo4y"><path d="M204.49,300.91a235.71,235.71,0,0,0,26.77-15.86c5.74-4.17,5.21-8.44-3-13.79-11.44-7.42-58.09-33.89-58.09-33.89s-59,34.8-56.43,41.23,39,26.31,50.53,30.83C180.84,316,194.39,305.9,204.49,300.91Z" style="fill: rgb(255, 255, 255); opacity: 0.6; transform-origin: 174.367px 274.476px;" class="animable"></path></g><path d="M147.1,164.12c-6.21-3.26-14.28,1.17-24.26,6.64-6.39,3.5-11.84,7.65-15.14,15.42l-4.22-2.43c3.31-7.74,8.75-11.89,15.12-15.39,10.24-5.61,18.47-10.11,24.73-6.36C143.88,162.32,146.06,163.53,147.1,164.12Z" style="fill: rgb(94, 9, 241); transform-origin: 125.29px 173.401px;" id="elavbxlbv0g1i" class="animable"></path><g id="elg3ge8l8rfac"><path d="M147.1,164.12c-6.21-3.26-14.28,1.17-24.26,6.64-6.39,3.5-11.84,7.65-15.14,15.42l-4.22-2.43c3.31-7.74,8.75-11.89,15.12-15.39,10.24-5.61,18.47-10.11,24.73-6.36C143.88,162.32,146.06,163.53,147.1,164.12Z" style="fill: rgb(255, 255, 255); opacity: 0.5; transform-origin: 125.29px 173.401px;" class="animable"></path></g><path d="M155.46,177c-.13-.43-2.27-7.86-6.27-11.39A10.14,10.14,0,0,0,142.4,163c-5.42,0-11.93,3.59-19.56,7.76-.63.35-1.26.71-1.88,1.08-.24.13-.48.27-.71.42s-.57.35-.85.53-.41.26-.61.4a36.41,36.41,0,0,0-3.85,2.92c-.19.17-.38.34-.57.53a26,26,0,0,0-2.18,2.26c-.13.14-.25.29-.37.43s-.3.36-.43.54l-.42.56c-.14.18-.27.36-.41.56a28,28,0,0,0-1.52,2.44c-.06.11-.13.22-.18.33s-.24.45-.36.69-.33.68-.49,1a43.74,43.74,0,0,0-3.46,14.6c-1.48,17.55,4.53,75.54,10.56,80.54,0,0-.92-5.68,11.21-13.31,8.25-5.19,14-9.55,22.85-13.87,21.45-10.54,27.46-12.51,27.46-12.51C167.4,235.32,161.85,197.24,155.46,177Z" style="fill: rgb(94, 9, 241); transform-origin: 140.476px 221.795px;" id="ells0my7x9tfj" class="animable"></path><g id="elgs4xlxlz8el"><path d="M155.46,177c-.13-.43-2.27-7.86-6.27-11.39A10.14,10.14,0,0,0,142.4,163c-5.42,0-11.93,3.59-19.56,7.76-.63.35-1.26.71-1.88,1.08-.24.13-.48.27-.71.42s-.57.35-.85.53-.41.26-.61.4a36.41,36.41,0,0,0-3.85,2.92c-.19.17-.38.34-.57.53a26,26,0,0,0-2.18,2.26c-.13.14-.25.29-.37.43s-.3.36-.43.54l-.42.56c-.14.18-.27.36-.41.56a28,28,0,0,0-1.52,2.44c-.06.11-.13.22-.18.33s-.24.45-.36.69-.33.68-.49,1a43.74,43.74,0,0,0-3.46,14.6c-1.48,17.55,4.53,75.54,10.56,80.54,0,0-.92-5.68,11.21-13.31,8.25-5.19,14-9.55,22.85-13.87,21.45-10.54,27.46-12.51,27.46-12.51C167.4,235.32,161.85,197.24,155.46,177Z" style="fill: rgb(255, 255, 255); opacity: 0.4; transform-origin: 140.476px 221.795px;" class="animable"></path></g></g></g><g id="freepik--shadow--inject-3"><path d="M235.06,284.21c0,2-1.28,3.81-3.8,5.65a235,235,0,0,1-26.76,15.85c-5.26,2.6-11.45,6.56-18.51,8.84-16.92-9.91-46.16-27.26-53.34-33a24.83,24.83,0,0,1-8.19-13,58.77,58.77,0,0,1-1.38-18.22c-6.09-2.34-7.07-9.2-7.91-17.75-2.23-22.58-2.35-50.27,3.62-59.36.2-.14.4-.28.61-.41l.85-.52c.23-.15.46-.29.7-.42q.93-.56,1.89-1.08C130.47,166.59,137,163,142.4,163a10.25,10.25,0,0,1,6.37,2.22l.41.35a17.16,17.16,0,0,1,3.46,4.58c.14.25.27.51.4.76a.89.89,0,0,1,.08.17c.12.22.22.44.33.66l.12.25.07.15.18.42c.22.5.42,1,.59,1.41l.13.3c.13.36.25.68.35,1l.1.27.09.27c0,.07,0,.15.08.22l.07.22.08.26c0,.07,0,.13.05.18a2.51,2.51,0,0,1,.1.29c6.39,20.27,11.94,58.35,21.17,63.94a.13.13,0,0,1,.1.11c12,6.64,42.94,24.68,51.5,30.24,4.64,3,6.83,5.69,6.84,8.18C235.07,280.26,235.05,283.43,235.06,284.21Z" style="opacity: 0.1; transform-origin: 174.415px 238.775px;" class="animable"></path></g><g id="freepik--Bottom--inject-3" class="animable" style="transform-origin: 208.537px 323.28px;"><path d="M215.63,344.71l.91,28s-2.77,5.94-9.28,6.43-7.55-6.05-7.55-6.05l-6-30.22Z" style="fill: rgb(255, 168, 167); transform-origin: 205.125px 361.018px;" id="elkxug7no79f" class="animable"></path><path d="M198.53,385.22a5.2,5.2,0,0,0,.22,2.66c.5,1.21,3.89,3.44,5.63,4.33s3.08,2.25,4.6,4.91c2.08,3.65,5.22,7.58,9.2,9.47a28.77,28.77,0,0,0,17,2c7.15-1.18,7.79-5.38,7.79-5.38s.43-3.95-1.33-4.6S198.53,385.22,198.53,385.22Z" style="fill: rgb(38, 50, 56); transform-origin: 220.733px 397.15px;" id="elaqgnn2mptr" class="animable"></path><path d="M197.62,380.33a11.48,11.48,0,0,0,.91,4.89c2.06,2.94,7,4,9.82,8s6.13,10.19,15.45,12.18,16.45-.88,18.21-3.52.22-5.16-5.72-8.48c-6.31-3.52-13.73-12.78-13.73-12.79-2.44-3.17-3.48-7.35-4.82-11.06-.14-.37-.35-.79-.73-.8s-.68.55-.92.94a3,3,0,0,1-1.8,1.11,23.2,23.2,0,0,1-2.47.7,22.94,22.94,0,0,1-5.09.55,2.1,2.1,0,0,0-1.6.42,1.83,1.83,0,0,0-.32,1.42,14.87,14.87,0,0,0,.24,1.88,1.91,1.91,0,0,1,0,.92,1.13,1.13,0,0,1-1.07.7,2.49,2.49,0,0,1-1.28-.41,5.66,5.66,0,0,1-3-3.84s-.35-1.74-.35-1.82a2.07,2.07,0,0,0-1,1.34c-.18.72-.12,1.49-.24,2.22A38.53,38.53,0,0,0,197.62,380.33Z" style="fill: rgb(94, 9, 241); transform-origin: 220.154px 387.407px;" id="el6op30y9yt7" class="animable"></path><g id="elm4c611820m"><path d="M197.62,380.33a11.48,11.48,0,0,0,.91,4.89c2.06,2.94,7,4,9.82,8s6.13,10.19,15.45,12.18,16.45-.88,18.21-3.52.22-5.16-5.72-8.48c-6.31-3.52-13.73-12.78-13.73-12.79-2.44-3.17-3.48-7.35-4.82-11.06-.14-.37-.35-.79-.73-.8s-.68.55-.92.94a3,3,0,0,1-1.8,1.11,23.2,23.2,0,0,1-2.47.7,22.94,22.94,0,0,1-5.09.55,2.1,2.1,0,0,0-1.6.42,1.83,1.83,0,0,0-.32,1.42,14.87,14.87,0,0,0,.24,1.88,1.91,1.91,0,0,1,0,.92,1.13,1.13,0,0,1-1.07.7,2.49,2.49,0,0,1-1.28-.41,5.66,5.66,0,0,1-3-3.84l-.35-1.82a2.07,2.07,0,0,0-1,1.34c-.18.72-.12,1.49-.24,2.22A38.53,38.53,0,0,0,197.62,380.33Z" style="opacity: 0.3; transform-origin: 220.154px 387.407px;" class="animable"></path></g><path d="M255.73,319.89l4.17,39.31s-5.69,5.77-10.41,5.11a7,7,0,0,1-5.87-4.22L232,322.38Z" style="fill: rgb(255, 168, 167); transform-origin: 245.95px 342.126px;" id="elljplih517s" class="animable"></path><path d="M243.63,371.19a5.32,5.32,0,0,0,.51,2.62c.63,1.15,4.24,3,6.07,3.7s3.31,1.9,5.1,4.38c2.46,3.41,6,7,10.17,8.43a28.83,28.83,0,0,0,17.14.15c7-2,7.16-6.19,7.16-6.19s0-4-1.82-4.43S243.63,371.19,243.63,371.19Z" style="fill: rgb(38, 50, 56); transform-origin: 266.7px 381.445px;" id="eloom11ki1jys" class="animable"></path><path d="M242.21,366.43a11.45,11.45,0,0,0,1.42,4.76c2.37,2.7,7.4,3.19,10.63,6.88s7.2,9.47,16.68,10.44,16.25-2.66,17.72-5.47-.33-5.15-6.6-7.81c-6.65-2.82-15-11.23-15-11.23-2.77-2.9-4.25-6.93-6-10.49-.17-.34-.43-.74-.81-.71s-.61.62-.81,1a3,3,0,0,1-1.67,1.29,21.14,21.14,0,0,1-2.38,1,22,22,0,0,1-5,1.1,2.1,2.1,0,0,0-1.55.59,1.9,1.9,0,0,0-.17,1.45,14.52,14.52,0,0,0,.45,1.84,1.92,1.92,0,0,1,.13.91,1.15,1.15,0,0,1-1,.82,2.47,2.47,0,0,1-1.32-.28c-1.63-.74-3.06-1.68-3.59-3.41,0,0-.27-.91-.55-1.75a1.71,1.71,0,0,0-.63,1.34c-.1.73,0,1.49,0,2.23A36.08,36.08,0,0,0,242.21,366.43Z" style="fill: rgb(94, 9, 241); transform-origin: 265.611px 370.734px;" id="elirglvqena4q" class="animable"></path><g id="elfbrqe5jjwft"><path d="M242.21,366.43a11.45,11.45,0,0,0,1.42,4.76c2.37,2.7,7.4,3.19,10.63,6.88s7.2,9.47,16.68,10.44,16.25-2.66,17.72-5.47-.33-5.15-6.6-7.81c-6.65-2.82-15-11.23-15-11.23-2.77-2.9-4.25-6.93-6-10.49-.17-.34-.43-.74-.81-.71s-.61.62-.81,1a3,3,0,0,1-1.67,1.29,21.14,21.14,0,0,1-2.38,1,22,22,0,0,1-5,1.1,2.1,2.1,0,0,0-1.55.59,1.9,1.9,0,0,0-.17,1.45,14.52,14.52,0,0,0,.45,1.84,1.92,1.92,0,0,1,.13.91,1.15,1.15,0,0,1-1,.82,2.47,2.47,0,0,1-1.32-.28c-1.63-.74-3.06-1.68-3.59-3.41,0,0-.27-.91-.55-1.75a1.71,1.71,0,0,0-.63,1.34c-.1.73,0,1.49,0,2.23A36.08,36.08,0,0,0,242.21,366.43Z" style="opacity: 0.3; transform-origin: 265.611px 370.734px;" class="animable"></path></g><path d="M127.29,240l22.94-2.52,44.43,2.4s26.68,17.06,46.05,30.68c5.63,4,11.59,8.3,12.58,16.59,1.4,11.77,5.19,53.52,5.19,53.52-3.88,4.29-13.79,6-19.87,4.87-1.86-4.82-6.4-19.67-8.56-26.29a123.33,123.33,0,0,1-4.59-21.52L197.21,280c6.22,6.33,8.26,8.39,11.52,11.68,2.86,2.89,4.75,6.53,5.59,15.89,1.67,18.56,1.79,44,2,49.69-2.34,3.27-11.81,7.58-19.31,3.81-2.56-9.94-3.71-14.8-5.93-24.06-4.28-17.9-2.75-23.87-3.6-27.74a305.66,305.66,0,0,1-30.06-17.37c-6.67-4.38-16-9.15-20.71-14.08C127.87,268.62,127.88,255.17,127.29,240Z" style="fill: rgb(55, 71, 79); transform-origin: 192.885px 300.008px;" id="elwetx037l34c" class="animable"></path><path d="M197.21,280l-16-18.11s8.51-2.87,13-13.91c0,0-1,10.47-7.27,15.07l7.47,10.12,31,24.54Z" style="fill: rgb(38, 50, 56); transform-origin: 203.31px 272.845px;" id="elfh2fgk13wk" class="animable"></path><path d="M215.91,402c.28-4.48,4-9.15,11.09-10.66s10.76,1.6,12.43,2.83,6.34,5.49,2,9.07-9.51,3.85-14.91,3.12S217.4,403.75,215.91,402Z" style="fill: rgb(250, 250, 250); transform-origin: 229.569px 398.811px;" id="elpzifwi79kna" class="animable"></path><path d="M262.69,386c-.06-4.49,3.63-10.39,10.56-12.42s10.54,1.16,12.29,2.26,6.74,5,2.71,8.9-9.2,4.5-14.66,4.58C269.93,389.33,264.3,387.61,262.69,386Z" style="fill: rgb(250, 250, 250); transform-origin: 276.236px 381.119px;" id="elr6xtk8gg7q" class="animable"></path></g><g id="freepik--Top--inject-3" class="animable" style="transform-origin: 172.937px 175.535px;"><g id="freepik--Arm--inject-3" class="animable" style="transform-origin: 195.76px 180.055px;"><path d="M195,160.63c-4.28-4.25-10.17-8.1-14-8.55a32.89,32.89,0,0,0-9.65.11l14.83,33S207,202,217.32,209.26L220.63,186S202.19,167.81,195,160.63Z" style="fill: rgb(255, 168, 167); transform-origin: 195.99px 180.519px;" id="elomcukwjw719" class="animable"></path><path d="M188.26,154.26c-4.8-3.52-9.68-3.89-17.37-3l12.75,33.21,15.26,10.83s-.1-3.83,2.75-9.14a20.13,20.13,0,0,1,9.95-9.1S193.06,157.79,188.26,154.26Z" style="fill: rgb(94, 9, 241); transform-origin: 191.245px 173.075px;" id="el3uyet2aet5g" class="animable"></path><g id="elpdf5rum1yd"><path d="M188.26,154.26c-4.8-3.52-9.68-3.89-17.37-3l12.75,33.21,15.26,10.83s-.1-3.83,2.75-9.14a20.13,20.13,0,0,1,9.95-9.1S193.06,157.79,188.26,154.26Z" style="opacity: 0.2; transform-origin: 191.245px 173.075px;" class="animable"></path></g></g><path id="freepik--Chest--inject-3" d="M189.84,178.75c.7-17.6-9.54-26.16-19-27.47,0,0-3.86.54-7.61,1.26-7.39,1.41-23.18,6.08-29.79,9.81-5.63,3.17-6.17,6.9-7.16,16.15-.71,6.6-1.17,11.48-1,31.51.09,14.65,1.86,29.66,2.24,39.77,12.8,9,53.55,7.81,68.3-9.19-5.37-9.4-8.61-16.24-8.36-25.26C187.9,199.19,189.49,187.64,189.84,178.75Z" style="fill: rgb(94, 9, 241); transform-origin: 160.532px 203.305px;" class="animable"></path><g id="freepik--Head--inject-3" class="animable" style="transform-origin: 167.101px 132.636px;"><path d="M193.15,105.57c0-.1,0-.2-.05-.3-.52-2.19-3,.17-4.41.08.18-.78,1-1.31,1.3-2a10.43,10.43,0,0,0,.86-3,11.18,11.18,0,0,0-.16-4.61c-1.25.46-2.39,1.18-3.66,1.63a17.56,17.56,0,0,1-6.36.88,123.55,123.55,0,0,1-14.23-1.3,31.38,31.38,0,0,0-9.43,0,17.44,17.44,0,0,0-7.66,3.21c-3,2.51-4,4.74-4.07,9.22-2.9,1.75-3.56,5.21-3.64,9.1-.1,4.81,2.36,9.23,4.33,13.48,0,0,5,10.79,6.16,12.91,1.36,2.45,2.56,4.51,2.56,4.51l-.82-9.09c3.3-.41,6,.51,9.09-.78a57.33,57.33,0,0,0,8.42-4.35,83.07,83.07,0,0,0,8.08-5.73,13.94,13.94,0,0,1,1.78-1.41c.48-.26.94-.26,1.35-.64.84-.79,1.1-2.27,1.53-3.29a13.92,13.92,0,0,1,.83-2.24c.38-.57,1.16-.81,1.75-1.16a8.48,8.48,0,0,0,3.83-4.62c.49-1.38.76-3.71-.2-5C191.44,109.44,193.45,107.72,193.15,105.57Z" style="fill: rgb(69, 90, 100); transform-origin: 167.409px 122.56px;" id="el8hf75qj9gou" class="animable"></path><path d="M160.79,112.32c.1,2.84-1.38,9.18-5.87,11.55a19.89,19.89,0,0,1,.3,8,5.37,5.37,0,0,1-.66,2,2.34,2.34,0,0,1-1.64,1.13c-.93.1-1.33-.45-1.64-1.16a22.54,22.54,0,0,0-1.51-2.65,5.21,5.21,0,0,0-.86-1c-1.45-1.25-5.68-2.69-7.45,1.82-1.83,4.67,2.44,9.6,5.84,10.37,4.52,1,5.75-2.22,5.75-2.22l-2.39,19c1.8,4.8,11.76,11.43,19,10.23s3.44-7.2.89-10.59l1.35-6s6.5.5,10.32-.38c3-.7,5.35-3.6,6.43-8.22,2-8.81,1.2-21.17-.11-26.61s-2.6-6.31-3.62-7.54c-.32,1.61-2.14,3.58-6.94,4.58C171.1,116,165.31,114,160.79,112.32Z" style="fill: rgb(255, 168, 167); transform-origin: 165.44px 139.791px;" id="elsp5cu3patc" class="animable"></path><path d="M171.86,152.73c-5.31-.83-10-2-12.87-3.81-2.12-1.31-3.8-5.06-4.29-6.38,0,0-.17,5,2.61,7.9,3.94,4.17,13.94,5,13.94,5Z" style="fill: rgb(242, 143, 143); transform-origin: 163.279px 148.99px;" id="eluuehqnvaikc" class="animable"></path><path d="M168,121.64l-4.69,2.23a2.72,2.72,0,0,1,1.28-3.55A2.52,2.52,0,0,1,168,121.64Z" style="fill: rgb(69, 90, 100); transform-origin: 165.536px 121.974px;" id="el020nyv9mqlo3" class="animable"></path><path d="M168.63,140l6.66,2.46a3.49,3.49,0,0,1-4.51,2.23A3.72,3.72,0,0,1,168.63,140Z" style="fill: rgb(177, 102, 104); transform-origin: 171.856px 142.448px;" id="elap8o19ygf9n" class="animable"></path><path d="M172.58,144.81a3.15,3.15,0,0,0-3.26-3,3,3,0,0,0-.8.15,3.63,3.63,0,0,0,2.26,2.69A3.38,3.38,0,0,0,172.58,144.81Z" style="fill: rgb(242, 143, 143); transform-origin: 170.55px 143.337px;" id="elkipb5mm1b9" class="animable"></path><path d="M186.32,123.39l-4.45-2.47a2.46,2.46,0,0,1,3.39-1A2.58,2.58,0,0,1,186.32,123.39Z" style="fill: rgb(69, 90, 100); transform-origin: 184.243px 121.496px;" id="elb8hikaf0tdo" class="animable"></path><polygon points="175.21 138.51 182.19 136.22 174.3 123.39 175.21 138.51" style="fill: rgb(242, 143, 143); transform-origin: 178.245px 130.95px;" id="el5jmy7l04bnr" class="animable"></polygon><path d="M181.29,127.35a2,2,0,1,0,2-2A2,2,0,0,0,181.29,127.35Z" style="fill: rgb(38, 50, 56); transform-origin: 183.29px 127.35px;" id="el5gyys2jyk5" class="animable"></path><path d="M165.53,127.77a2,2,0,1,0,2.05-2A2.05,2.05,0,0,0,165.53,127.77Z" style="fill: rgb(38, 50, 56); transform-origin: 167.53px 127.77px;" id="elnhmt0ljjhr" class="animable"></path></g></g><g id="freepik--Desk--inject-3" class="animable" style="transform-origin: 255.735px 310.96px;"><polygon points="221.08 343.98 221.08 446.98 217.64 444.99 217.64 341.99 221.08 343.98" style="fill: rgb(38, 50, 56); transform-origin: 219.36px 394.485px;" id="elz3mwl4wo88m" class="animable"></polygon><polygon points="221.08 343.98 221.08 446.98 224.52 444.99 224.52 341.99 221.08 343.98" style="fill: rgb(55, 71, 79); transform-origin: 222.8px 394.485px;" id="el105b3vrexeg" class="animable"></polygon><polygon points="123.8 287.72 123.8 390.72 120.36 388.73 120.36 285.73 123.8 287.72" style="fill: rgb(38, 50, 56); transform-origin: 122.08px 338.225px;" id="el4c1490gh9hy" class="animable"></polygon><polygon points="123.8 287.72 123.8 390.72 127.24 388.73 127.24 285.73 123.8 287.72" style="fill: rgb(55, 71, 79); transform-origin: 125.52px 338.225px;" id="eljqqp107r95" class="animable"></polygon><polygon points="387.74 247.76 387.74 350.76 384.3 348.77 384.3 245.78 387.74 247.76" style="fill: rgb(38, 50, 56); transform-origin: 386.02px 298.27px;" id="el9o7lra4vcng" class="animable"></polygon><polygon points="387.74 247.76 387.74 350.76 391.18 348.77 391.18 245.78 387.74 247.76" style="fill: rgb(55, 71, 79); transform-origin: 389.46px 298.27px;" id="el1ky5zvxw9iph" class="animable"></polygon><polygon points="221.08 337.85 221.08 350.11 120.36 291.86 120.36 279.6 221.08 337.85" style="fill: rgb(55, 71, 79); transform-origin: 170.72px 314.855px;" id="elz6fyjdk8vaa" class="animable"></polygon><polygon points="221.08 350.11 391.19 251.91 391.19 239.65 221.08 337.85 221.08 350.11" style="fill: rgb(69, 90, 100); transform-origin: 306.135px 294.88px;" id="el3ulg67p8i8v" class="animable"></polygon><g id="freepik--desk--inject-3" class="animable" style="transform-origin: 255.735px 259.555px;"><polygon points="221.63 335.56 116.35 274.77 289.83 174.94 395.12 235.73 221.63 335.56" style="fill: rgb(94, 9, 241); transform-origin: 255.735px 255.25px;" id="el6me5fdlbwbe" class="animable"></polygon><g id="elksunjqsmu88"><g style="opacity: 0.8; transform-origin: 255.735px 255.25px;" class="animable"><polygon points="221.63 335.56 116.35 274.77 289.83 174.94 395.12 235.73 221.63 335.56" style="fill: rgb(255, 255, 255); transform-origin: 255.735px 255.25px;" id="el2ddvqtkmvhd" class="animable"></polygon></g></g><polygon points="116.35 274.75 116.35 283.4 221.63 344.17 221.63 335.54 116.35 274.75" style="fill: rgb(94, 9, 241); transform-origin: 168.99px 309.46px;" id="elfgrqu10cdfl" class="animable"></polygon><g id="elinh0wm55yz"><g style="opacity: 0.5; transform-origin: 168.99px 309.46px;" class="animable"><polygon points="116.35 274.75 116.35 283.4 221.63 344.17 221.63 335.54 116.35 274.75" style="fill: rgb(255, 255, 255); transform-origin: 168.99px 309.46px;" id="elivt6zhibr9" class="animable"></polygon></g></g><polygon points="221.63 344.17 395.12 244.43 395.12 235.71 221.63 335.54 221.63 344.17" style="fill: rgb(94, 9, 241); transform-origin: 308.375px 289.94px;" id="el0gq31qb5c88l" class="animable"></polygon><g id="elwqyoeraxsm"><g style="opacity: 0.65; transform-origin: 308.375px 289.94px;" class="animable"><polygon points="221.63 344.17 395.12 244.43 395.12 235.71 221.63 335.54 221.63 344.17" style="fill: rgb(255, 255, 255); transform-origin: 308.375px 289.94px;" id="elp7pyplvyixf" class="animable"></polygon></g></g></g></g><path d="M220.63,186a49.47,49.47,0,0,0-1.24,14.57s-3.58-9.1-1.21-17Z" style="fill: rgb(242, 143, 143); transform-origin: 219px 192.07px;" id="elvsvtnk3fwio" class="animable"></path><path d="M256.69,128.31c.06-1-.69-1.24-1.48-1.2A5.82,5.82,0,0,0,252,128.4a37.86,37.86,0,0,0-3.88,4.13c-2,2.07-5.2,5.45-8,6.21-.58.15-1.82.3-1.27-.65a25.49,25.49,0,0,0,2-3.78,5.13,5.13,0,0,0,0-4.17,1.77,1.77,0,0,0-.91-.88c-.58-.2-.83.12-1.11.52a13.62,13.62,0,0,1-1,1.15c-.72.77-1.44,1.55-2.15,2.33-4.13,4.57-8.11,9.65-9.46,15.8-.2.89-.94,7.67-1.58,11.56-.41,3.49-4,25.38-4,25.38l-3.31,23.26c9.35,6.54,14.68,3.28,16.22.62,2.56-4.4,4.88-6.33,5.18-32.59.05-2.43,0-4.86.05-7.29a53.14,53.14,0,0,1,.77-9.32c.67-3.1,3.08-4.05,4.63-5.14a28.33,28.33,0,0,0,5.89-5.14,26,26,0,0,0,4-5.53,8,8,0,0,0,1.26-3.08,22.06,22.06,0,0,1-.33-2.74c.12-1.08.74-2.08.74-3.16a10.26,10.26,0,0,0-.61-2.47c-.35-1.31.2-2.31.84-3.42A3.93,3.93,0,0,0,256.69,128.31Z" style="fill: rgb(255, 168, 167); transform-origin: 237.012px 170.097px;" id="eln97o62s3srl" class="animable"></path><path d="M237.78,142.29c-.16,3.55-2.22,8.17-3.76,9.81a11,11,0,0,0,3.58-4.43C238.63,144.87,238.35,143.52,237.78,142.29Z" style="fill: rgb(242, 143, 143); transform-origin: 236.155px 147.195px;" id="elhobxl8g4wxw" class="animable"></path><g id="freepik--Laptop--inject-3" class="animable" style="transform-origin: 213.238px 228.285px;"><g id="freepik--laptop--inject-3" class="animable" style="transform-origin: 238.104px 257.359px;"><g id="elmrubvqo9xe"><path d="M298.7,249.86l-43.3-25a2.51,2.51,0,0,0-2.49,0l-75.13,43.39a.55.55,0,0,0,0,.95l43.71,25.25Z" style="opacity: 0.2; transform-origin: 238.104px 259.49px;" class="animable"></path></g><path d="M295.47,244.6v1a4,4,0,0,1-2,3.47l-70,40.4a4.06,4.06,0,0,1-4,0l-38.15-22a4,4,0,0,1-2-3.46v-1.35h0a.49.49,0,0,0,.25.44l41.89,24.2Z" style="fill: rgb(55, 71, 79); transform-origin: 237.395px 267.298px;" id="el716qvl26yuq" class="animable"></path><path d="M295.47,244.59l-41.49-24a2.38,2.38,0,0,0-2.39,0l-72,41.57a.53.53,0,0,0,0,.92l41.88,24.18Z" style="fill: rgb(69, 90, 100); transform-origin: 237.397px 253.764px;" id="elrh328itk51" class="animable"></path><polygon points="221.11 283.79 198.73 270.88 264.17 233.1 286.67 245.94 221.11 283.79" style="fill: rgb(55, 71, 79); transform-origin: 242.7px 258.445px;" id="elpjxx5qs7lxd" class="animable"></polygon><polygon points="286.67 245.94 285.81 246.43 264.17 234.08 199.59 271.37 198.73 270.88 264.17 233.09 286.67 245.94" style="fill: rgb(38, 50, 56); transform-origin: 242.7px 252.23px;" id="elpptlumth65" class="animable"></polygon><polygon points="210.11 247.88 210.52 248.12 221.49 254.45 241 243.19 241.4 242.96 230.02 236.38 210.11 247.88" style="fill: rgb(38, 50, 56); transform-origin: 225.755px 245.415px;" id="el5oqbw8gklrf" class="animable"></polygon><polygon points="210.52 248.12 221.49 254.45 241 243.19 230.02 236.85 210.52 248.12" style="fill: rgb(55, 71, 79); transform-origin: 225.76px 245.65px;" id="el5ypv01pi6hb" class="animable"></polygon><path d="M221.49,287.31V290a4,4,0,0,0,2-.53l70-40.4a4,4,0,0,0,2-3.47v-1Z" style="fill: rgb(38, 50, 56); transform-origin: 258.49px 267.3px;" id="el20mlddc5t2a" class="animable"></path></g><g id="freepik--character--inject-3" class="animable" style="transform-origin: 175.105px 213.309px;"><g id="freepik--arm--inject-3" class="animable" style="transform-origin: 207.01px 253.689px;"><path d="M184,257.53s1,.51,2.57,1.14c1.44.56,2.72,1.7,6.14,2.81,4.06,1.31,9.3-.09,12.84-.23s9.53,1.6,12.8,3,7.28-3.62,8.92-3,4.52-.65,1.54-3.69-7.29-7.25-10.95-8.53a19.85,19.85,0,0,0-2.57-.84,28.72,28.72,0,0,0,3.79-.7,6.69,6.69,0,0,0,3.23-2.07c.32-.41.56-1.06.16-1.4a.91.91,0,0,0-.52-.2c-2.76-.12-4.92-.58-7.43-.8a10.3,10.3,0,0,0-3.37,0c-1,.26-2.06.55-3.08.88-4.59,1.51-10.77,1.41-14.23,1.34-1.42,0-4.75-.58-4.75-.58-.84-.08-1.69,1.22-3.25,4.56C183.32,254.49,184,257.53,184,257.53Z" style="fill: rgb(255, 168, 167); transform-origin: 207.01px 253.689px;" id="el7e8ssfx19wb" class="animable"></path><path d="M213.74,246.21a12.44,12.44,0,0,0-5,.73,27.52,27.52,0,0,1,6.53,1.24,28.72,28.72,0,0,0,3.79-.7,7,7,0,0,0,2.93-1.73C220,247.07,216.12,246.48,213.74,246.21Z" style="fill: rgb(242, 143, 143); transform-origin: 215.365px 246.965px;" id="elik9jdcpitqm" class="animable"></path></g><path d="M189.63,260.27c-4.46-2.31-26.79-4.93-35.14-7.18a138.22,138.22,0,0,1-14.75-4.74c-3.26-1.27-5.28-3.11-7.27-10.84S122,197.86,121.08,188.37s.08-14.48,3.45-18.9c2.47-3.24,9.1-6.47,9.1-6.47s7.91,3.95,10.76,15.34,2.7,17.63,2.7,17.63l8.07,34.61,17.41,7.28c8,3.32,14.91,6.54,18.47,7.1S189.63,260.27,189.63,260.27Z" style="fill: rgb(255, 168, 167); transform-origin: 156.54px 211.635px;" id="elamfutj19ulw" class="animable"></path><path d="M133.9,162.12c-7.1,3.48-10.74,6.67-12.71,12.35s-.91,13.81.46,21,4.55,20.4,4.55,20.4,3.64,1.06,13.19-1.37,11.23-5.91,11.23-5.91l-2.81-14.19S147.9,167.59,133.9,162.12Z" style="fill: rgb(94, 9, 241); transform-origin: 135.363px 189.11px;" id="elufq89y5mkg" class="animable"></path><g id="el5ijlyjs1k1u"><path d="M133.9,162.12c-7.1,3.48-10.74,6.67-12.71,12.35s-.91,13.81.46,21,4.55,20.4,4.55,20.4,3.64,1.06,13.19-1.37,11.23-5.91,11.23-5.91l-2.81-14.19S147.9,167.59,133.9,162.12Z" style="opacity: 0.2; transform-origin: 135.363px 189.11px;" class="animable"></path></g></g><path d="M222.62,287.9a4.73,4.73,0,0,0,4.08-.32l69.68-40.22a4.76,4.76,0,0,0,2.3-3.32l7.63-45.49a4.9,4.9,0,0,0,.06-.77,4.73,4.73,0,0,0-1.4-3.37l-72.41,41.81a3.53,3.53,0,0,0-1.7,2.45Z" style="fill: rgb(55, 71, 79); transform-origin: 264.495px 241.314px;" id="elv24z1ik6tkf" class="animable"></path><path d="M221.49,287.31l.48.27a4.9,4.9,0,0,0,.65.32l8.24-49.23a3.53,3.53,0,0,1,1.7-2.45L305,194.41a5,5,0,0,0-1-.74l-72.56,41.89a3.52,3.52,0,0,0-1.7,2.45Z" style="fill: rgb(69, 90, 100); transform-origin: 263.245px 240.785px;" id="elo40ory2ioim" class="animable"></path><path d="M231.53,237.15l-1.12-.65a3.43,3.43,0,0,0-.66,1.51l-8.26,49.3.48.27a4.9,4.9,0,0,0,.65.32l8.24-49.23A3.6,3.6,0,0,1,231.53,237.15Z" style="fill: rgb(38, 50, 56); transform-origin: 226.51px 262.2px;" id="elglg7a1xh4s" class="animable"></path><path d="M261.86,245.91c.51-3,3.65-7.09,7-9s5.69-1.05,5.18,2-3.66,7.09-7,9S261.35,249,261.86,245.91Z" style="fill: rgb(94, 9, 241); transform-origin: 267.95px 242.415px;" id="elztevllim2pj" class="animable"></path></g></g></g><g id="freepik--trash-basket--inject-3" class="animable" style="transform-origin: 87.3198px 367.661px;"><g id="freepik--trash-can--inject-3" class="animable" style="transform-origin: 87.3198px 367.661px;"><path d="M59.21,400.64c0-8.73,12.58-15.81,28.11-15.81s28.11,7.08,28.11,15.81v2.07c0,8.73-12.58,15.81-28.11,15.81s-28.11-7.08-28.11-15.81Z" style="fill: rgb(94, 9, 241); transform-origin: 87.32px 401.675px;" id="elvgfeyxpll5d" class="animable"></path><g id="elb8js10ap6qe"><path d="M59.21,400.64c0-8.73,12.58-15.81,28.11-15.81s28.11,7.08,28.11,15.81v2.07c0,8.73-12.58,15.81-28.11,15.81s-28.11-7.08-28.11-15.81Z" style="fill: rgb(255, 255, 255); opacity: 0.6; transform-origin: 87.32px 401.675px;" class="animable"></path></g><g id="elmb2xp5o9mqq"><path d="M59.21,400.64c0-8.73,12.58-15.81,28.11-15.81s28.11,7.08,28.11,15.81v2.07c0,8.73-12.58,15.81-28.11,15.81s-28.11-7.08-28.11-15.81Z" style="opacity: 0.1; transform-origin: 87.32px 401.675px;" class="animable"></path></g><path d="M59.21,400.64c0,8.73,12.58,15.8,28.11,15.8s28.11-7.07,28.11-15.8-12.58-15.81-28.11-15.81S59.21,391.91,59.21,400.64Z" style="fill: rgb(94, 9, 241); transform-origin: 87.32px 400.635px;" id="elqujbwgn4xts" class="animable"></path><g id="elynepqn75b5"><path d="M59.21,400.64c0,8.73,12.58,15.8,28.11,15.8s28.11-7.07,28.11-15.8-12.58-15.81-28.11-15.81S59.21,391.91,59.21,400.64Z" style="fill: rgb(255, 255, 255); opacity: 0.75; transform-origin: 87.32px 400.635px;" class="animable"></path></g><g id="elazp97ojr1sv"><path d="M59.21,400.64c0,8.73,12.58,15.8,28.11,15.8s28.11-7.07,28.11-15.8-12.58-15.81-28.11-15.81S59.21,391.91,59.21,400.64Z" style="opacity: 0.05; transform-origin: 87.32px 400.635px;" class="animable"></path></g><path d="M113.42,355.1a.6.6,0,0,0,.6-.51l3.66-26.82a.6.6,0,0,0-.51-.68.61.61,0,0,0-.68.51l-3.66,26.81a.61.61,0,0,0,.5.69Z" style="fill: rgb(250, 250, 250); transform-origin: 115.255px 341.093px;" id="el5b0xcn2vics" class="animable"></path><path d="M107.51,361.36a.6.6,0,0,0,.59-.54l3.61-34.55a.6.6,0,0,0-1.19-.13l-3.61,34.56a.6.6,0,0,0,.53.66Z" style="fill: rgb(250, 250, 250); transform-origin: 109.309px 343.503px;" id="elarhl17b14xl" class="animable"></path><path d="M100.17,364.91a.6.6,0,0,0,.6-.56L103.45,322a.61.61,0,0,0-.57-.64.57.57,0,0,0-.63.56l-2.68,42.32a.6.6,0,0,0,.56.64Z" style="fill: rgb(250, 250, 250); transform-origin: 101.51px 343.133px;" id="elzq3onf0pgno" class="animable"></path><path d="M91.73,366.67a.6.6,0,0,0,.6-.58l.88-46a.61.61,0,0,0-.59-.61.55.55,0,0,0-.61.59l-.88,46a.6.6,0,0,0,.59.61Z" style="fill: rgb(250, 250, 250); transform-origin: 92.17px 343.078px;" id="ell6w260ir7zp" class="animable"></path><path d="M60.52,355.1a.59.59,0,0,1-.59-.51l-3.66-26.82a.6.6,0,0,1,.5-.68.61.61,0,0,1,.68.51l3.67,26.81a.61.61,0,0,1-.51.69Z" style="fill: rgb(250, 250, 250); transform-origin: 58.6949px 341.093px;" id="el4dovsmikof5" class="animable"></path><path d="M66.44,361.36a.6.6,0,0,1-.6-.54l-3.61-34.55a.6.6,0,0,1,.53-.66.59.59,0,0,1,.66.53L67,360.7a.61.61,0,0,1-.54.66Z" style="fill: rgb(250, 250, 250); transform-origin: 64.6145px 343.483px;" id="elsgzyq1bh3wo" class="animable"></path><path d="M73.78,364.91a.59.59,0,0,1-.6-.56L70.5,322a.6.6,0,0,1,.56-.64.58.58,0,0,1,.64.56l2.67,42.32a.6.6,0,0,1-.56.64Z" style="fill: rgb(250, 250, 250); transform-origin: 72.435px 343.133px;" id="el97v0096raj4" class="animable"></path><path d="M82.21,366.67a.6.6,0,0,1-.6-.58l-.87-46a.59.59,0,0,1,.58-.61.56.56,0,0,1,.62.59l.87,46a.59.59,0,0,1-.58.61Z" style="fill: rgb(250, 250, 250); transform-origin: 81.775px 343.078px;" id="elzio6riifjjh" class="animable"></path><path d="M113.4,372.94c-1.52-1.87-3.57-3.64-4.08-6.11-.39-1.88-.32-4-1.44-5.53a17,17,0,0,0-2.9-2.58,8.58,8.58,0,0,1-1.88-10c-1.72-.65-3.67.22-5.06,1.42s-2.5,2.74-4,3.81c-2,1.46-4.62,1.9-6.94,2.86s-4.62,2.83-4.69,5.34c-.06,2.3,1.73,4.83.36,6.68-2.11,2.84-7.59.21-7.37,5.31.09,1.94.77,2.91-1.23,4.28s-4.89.63-7,2.06a7.63,7.63,0,0,0-2.29,3.29c-.67,1.46-1.34,2.92-1.87,4.44a19.54,19.54,0,0,0-.43,12.34c.57,1.75,1.53,4.31,3.37,4.89,2.49.79,4.81,0,7.07,1.85.91.75,1.58,1.74,2.46,2.51a9.11,9.11,0,0,0,5.92,2c1.71,0,3.36-.63,5-.66a12.64,12.64,0,0,1,3.31.74c2.46.58,5.55.57,7.4-1.43,1.33-1.43,1.8-3.7,3.54-4.59s4,.17,6.07.11c3.45-.08,6-3.51,6.55-6.92s-.33-6.85-.75-10.28c-.57-4.53,2.72-7.89,2.56-12.06A6.48,6.48,0,0,0,113.4,372.94Z" style="fill: rgb(250, 250, 250); transform-origin: 88.4342px 380.355px;" id="elcuw6060g7wv" class="animable"></path><path d="M113.4,372.94c-.63-.77-1.35-1.53-2-2.33-.67,2.16-2.17,4-3,6.08-1,2.51-1,5.3-1.06,8,0,2.94,0,5.89,0,8.84a2.23,2.23,0,0,1-.39,1.52c-.7.76-2,.18-2.7-.58s-1.41-1.74-2.44-1.76c-1.22,0-2.21,1.37-3.41,1.13s-1.45-1.7-1-2.71a8.92,8.92,0,0,1,2.16-2.48,3.31,3.31,0,0,0,1.21-2.92c-3.35-.43-6.27,2.14-8.67,4.52-1.06,1-2.21,2.51-1.59,3.86.47,1,1.78,1.44,2.34,2.43a2.78,2.78,0,0,1-1,3.43A8.11,8.11,0,0,1,88,401.16a6.64,6.64,0,0,1-2.7,0,2.3,2.3,0,0,1-1.79-1.82c-.08-.91.86-1.84,1.71-1.51-1.57-1.15-3.27-2.34-5.21-2.39s-4,1.64-3.61,3.54l-7.73-.17c1.06-1.53-.19-3.57-1.5-4.89A10.76,10.76,0,0,1,65,391.33a3.07,3.07,0,0,1,.1-3.24c.66-.84,1.95-1.27,2.11-2.33a1.74,1.74,0,0,0-1.5-1.77,2.72,2.72,0,0,0-.9,0c-.64,1.4-1.28,2.8-1.78,4.25a19.54,19.54,0,0,0-.43,12.34c.57,1.75,1.53,4.31,3.37,4.89,2.49.79,4.81,0,7.07,1.85.91.75,1.58,1.74,2.46,2.51a9.11,9.11,0,0,0,5.92,2c1.71,0,3.36-.63,5-.66a12.64,12.64,0,0,1,3.31.74c2.46.58,5.55.57,7.4-1.43,1.33-1.43,1.8-3.7,3.54-4.59s4,.17,6.07.11c3.45-.08,6-3.51,6.55-6.92s-.33-6.85-.75-10.28c-.57-4.53,2.72-7.89,2.56-12.06A6.48,6.48,0,0,0,113.4,372.94Z" style="fill: rgb(235, 235, 235); transform-origin: 88.4542px 391.426px;" id="elaec761df1fi" class="animable"></path><path d="M75,383.07a2.81,2.81,0,0,1,.43,2.32,8.41,8.41,0,0,0-.33,1.19.92.92,0,0,0,.56,1,1.39,1.39,0,0,0,.95-.27,3.75,3.75,0,0,1,2.61-.54,1.86,1.86,0,0,1,1.49,2,3.69,3.69,0,0,0,0-3.65,2.39,2.39,0,0,0-3.32-.71,2.17,2.17,0,0,0-1.29-2.57,3.59,3.59,0,0,0-2.87.11A3.53,3.53,0,0,1,75,383.07Z" style="fill: rgb(235, 235, 235); transform-origin: 77.2114px 385.181px;" id="eloolt8xoi5og" class="animable"></path><path d="M87.76,374.9c-.32.22-.69.36-1,.61a1,1,0,0,0-.46,1c.69-.11,1.3.47,1.68,1.05a3.92,3.92,0,0,0,1.34,1.58c.51.25,1.15.21,1.6.55.66.52.55,1.53.37,2.35l3.27-2.19a2.3,2.3,0,0,0,.53-.45,1.41,1.41,0,0,0-.33-1.83,3.19,3.19,0,0,0-1.91-.62,9.85,9.85,0,0,1-2-.21.53.53,0,0,1-.39-.3c-.08-.26.24-.47.5-.57l3.15-1.19a.49.49,0,0,0,0-.71,1.33,1.33,0,0,0-.73-.27,43.62,43.62,0,0,0-6.07-1C87.33,373.55,89.35,373.81,87.76,374.9Z" style="fill: rgb(235, 235, 235); transform-origin: 90.7901px 377.37px;" id="elklwfjrhecs" class="animable"></path><path d="M95.56,361.76c-1.69-.26-3.68.62-4,2.28,1.39.09,2.46,1.23,3.37,2.3L96.33,368a4,4,0,0,1,1.06,1.79c.12.64,0,1.37.34,1.9a2.13,2.13,0,0,0,1.07.64,2.83,2.83,0,0,0,2.61,0,1.91,1.91,0,0,0,.51-2.08,5.84,5.84,0,0,0-1.26-1.9,7.93,7.93,0,0,1,4.64.42,1.5,1.5,0,0,0,1.12.18,1.07,1.07,0,0,0,.55-.73,2.67,2.67,0,0,0-1.09-2.69,5.05,5.05,0,0,0-2.92-.83C100,364.72,98.41,362.2,95.56,361.76Z" style="fill: rgb(235, 235, 235); transform-origin: 99.2889px 367.182px;" id="elq0cs01o2n" class="animable"></path><path d="M114,402.17l7.33-50.12a.6.6,0,0,0-.51-.68.61.61,0,0,0-.68.51L112.83,402a.6.6,0,0,0,.5.68h.09a.61.61,0,0,0,.6-.52" style="fill: rgb(250, 250, 250); transform-origin: 117.08px 377.023px;" id="elx4el4gr3x1" class="animable"></path><path d="M107.51,408.94a.6.6,0,0,0,.59-.53l5.24-50.12a.6.6,0,0,0-.53-.66.59.59,0,0,0-.66.53l-5.24,50.12a.59.59,0,0,0,.53.66Z" style="fill: rgb(250, 250, 250); transform-origin: 110.124px 383.283px;" id="el8dfmhvovfw" class="animable"></path><path d="M100.17,412.5a.61.61,0,0,0,.6-.57l3.14-50.12a.59.59,0,0,0-.56-.63.58.58,0,0,0-.64.56l-3.14,50.12a.61.61,0,0,0,.56.64Z" style="fill: rgb(250, 250, 250); transform-origin: 101.74px 386.838px;" id="elniekwnylzgt" class="animable"></path><path d="M91.73,414.26a.6.6,0,0,0,.6-.59l1-50.12a.6.6,0,0,0-.59-.61.55.55,0,0,0-.61.59l-1.05,50.12a.6.6,0,0,0,.59.61Z" style="fill: rgb(250, 250, 250); transform-origin: 92.205px 388.598px;" id="el67g0jxkkq33" class="animable"></path><path d="M82.91,414.26h0a.6.6,0,0,0,.59-.61l-1.05-50.12a.6.6,0,0,0-.6-.59h0a.6.6,0,0,0-.59.61l1,50.12A.6.6,0,0,0,82.91,414.26Z" style="fill: rgb(250, 250, 250); transform-origin: 82.38px 388.601px;" id="el9mmsug9j0er" class="animable"></path><path d="M74.47,412.5h0a.61.61,0,0,0,.56-.64l-3.14-50.12a.56.56,0,0,0-.64-.56.59.59,0,0,0-.56.63l3.14,50.12A.61.61,0,0,0,74.47,412.5Z" style="fill: rgb(250, 250, 250); transform-origin: 72.8597px 386.838px;" id="elf0rwo2bofbh" class="animable"></path><path d="M67.13,408.94h.07a.59.59,0,0,0,.53-.66l-5.24-50.12a.58.58,0,0,0-.66-.53.59.59,0,0,0-.53.66l5.24,50.12A.6.6,0,0,0,67.13,408.94Z" style="fill: rgb(250, 250, 250); transform-origin: 64.515px 383.282px;" id="elpeva7knphh" class="animable"></path><path d="M61.22,402.69h.08a.6.6,0,0,0,.51-.68l-7.33-50.12a.61.61,0,0,0-.68-.51.6.6,0,0,0-.51.68l7.33,50.12A.61.61,0,0,0,61.22,402.69Z" style="fill: rgb(250, 250, 250); transform-origin: 57.55px 377.033px;" id="elmwbuuckzwmc" class="animable"></path><g id="freepik--Bin--inject-3" class="animable" style="transform-origin: 87.3198px 342.785px;"><path d="M48.21,342.23a14.87,14.87,0,0,0,2.36,5.51,26.15,26.15,0,0,0,8.9,7.9c15.37,8.87,40.32,8.87,55.71,0a26.2,26.2,0,0,0,8.89-7.9,15.38,15.38,0,0,0,2.36-5.51h0c1.37-6.68-2.39-13.64-11.26-18.76-15.39-8.89-40.34-8.89-55.71,0C50.59,328.59,46.84,335.55,48.21,342.23ZM64.1,353c-4.95-2.87-8-6.41-9.11-10.11,1.1-4,4.14-7.79,9.11-10.88,12.82-7.94,33.61-7.94,46.43,0,5,3.09,8,6.91,9.11,10.89-1.12,3.7-4.17,7.24-9.12,10.1C97.71,360.35,76.92,360.35,64.1,353Z" style="fill: rgb(94, 9, 241); transform-origin: 87.3198px 339.548px;" id="elsshyg84zei" class="animable"></path><g id="elweola320iyl"><path d="M48.21,342.23a14.87,14.87,0,0,0,2.36,5.51,26.15,26.15,0,0,0,8.9,7.9c15.37,8.87,40.32,8.87,55.71,0a26.2,26.2,0,0,0,8.89-7.9,15.38,15.38,0,0,0,2.36-5.51h0c1.37-6.68-2.39-13.64-11.26-18.76-15.39-8.89-40.34-8.89-55.71,0C50.59,328.59,46.84,335.55,48.21,342.23ZM64.1,353c-4.95-2.87-8-6.41-9.11-10.11,1.1-4,4.14-7.79,9.11-10.88,12.82-7.94,33.61-7.94,46.43,0,5,3.09,8,6.91,9.11,10.89-1.12,3.7-4.17,7.24-9.12,10.1C97.71,360.35,76.92,360.35,64.1,353Z" style="fill: rgb(255, 255, 255); opacity: 0.75; transform-origin: 87.3198px 339.548px;" class="animable"></path></g><path d="M50.57,347.73a26.19,26.19,0,0,0,8.89,7.9c15.39,8.88,40.33,8.88,55.72,0a26.19,26.19,0,0,0,8.89-7.9,14.9,14.9,0,0,0,2.35-5.5h0l-1.74,6.95c-.8,4.83-4.4,9.54-10.83,13.25-14.66,8.45-38.42,8.45-53.08,0-6.34-3.66-9.94-8.31-10.79-13.08l-.09-.62-1.7-6.5A15,15,0,0,0,50.57,347.73Z" style="fill: rgb(94, 9, 241); transform-origin: 87.305px 355.499px;" id="elnzlc1dftild" class="animable"></path><g id="elrp0dgq94xz"><path d="M50.57,347.73a26.19,26.19,0,0,0,8.89,7.9c15.39,8.88,40.33,8.88,55.72,0a26.19,26.19,0,0,0,8.89-7.9,14.9,14.9,0,0,0,2.35-5.5h0l-1.74,6.95c-.8,4.83-4.4,9.54-10.83,13.25-14.66,8.45-38.42,8.45-53.08,0-6.34-3.66-9.94-8.31-10.79-13.08l-.09-.62-1.7-6.5A15,15,0,0,0,50.57,347.73Z" style="fill: rgb(255, 255, 255); opacity: 0.6; transform-origin: 87.305px 355.499px;" class="animable"></path></g><path d="M54.66,341.47c.09.46.2.91.33,1.37,1.1-4,4.14-7.79,9.11-10.88,12.82-7.94,33.61-7.94,46.43,0,5,3.09,8,6.91,9.11,10.89a9.4,9.4,0,0,0,.34-1.39c1-5.46-2.2-11.12-9.46-15.32-12.81-7.4-33.6-7.4-46.42,0C56.85,330.34,53.7,336,54.66,341.47Z" style="fill: rgb(94, 9, 241); transform-origin: 87.3253px 331.72px;" id="elz8rei0trrmb" class="animable"></path><g id="eleu4pf7vwx4s"><path d="M54.66,341.47c.09.46.2.91.33,1.37,1.1-4,4.14-7.79,9.11-10.88,12.82-7.94,33.61-7.94,46.43,0,5,3.09,8,6.91,9.11,10.89a9.4,9.4,0,0,0,.34-1.39c1-5.46-2.2-11.12-9.46-15.32-12.81-7.4-33.6-7.4-46.42,0C56.85,330.34,53.7,336,54.66,341.47Z" style="fill: rgb(255, 255, 255); opacity: 0.6; transform-origin: 87.3253px 331.72px;" class="animable"></path></g></g></g></g><g id="freepik--Folder--inject-3" class="animable" style="transform-origin: 238.095px 97.5817px;"><g id="freepik--folder--inject-3" class="animable" style="transform-origin: 238.095px 97.5817px;"><path d="M265,64.22a.78.78,0,0,0-.31-.7h0l-2.06-1.19h0a.78.78,0,0,0-.78.08l-31.6,18.22-.85-2.84a1,1,0,0,0-.46-.61h0L226.87,76h0a1,1,0,0,0-1,0l-13.58,7.84a2.43,2.43,0,0,0-1.1,1.91V131a.78.78,0,0,0,.3.7h0l0,0h0l2.05,1.19h0a.81.81,0,0,0,.75-.09l49.57-28.62a2.44,2.44,0,0,0,1.11-1.91Z" style="fill: rgb(94, 9, 241); transform-origin: 238.095px 97.6022px;" id="eluvyn1kh67b" class="animable"></path><g id="elfwfohx72sgs"><g style="opacity: 0.5; transform-origin: 238.07px 74.0199px;" class="animable"><path d="M228.92,77.15a1,1,0,0,0-1,0L214.35,85a2.46,2.46,0,0,0-.78.82l-2.07-1.19a2.24,2.24,0,0,1,.78-.83L225.86,76a1,1,0,0,1,1,0h0Z" style="fill: rgb(255, 255, 255); transform-origin: 220.21px 80.843px;" id="elb67mwk2nc7" class="animable"></path><path d="M264.64,63.48a.85.85,0,0,0-.72.1L232,82a1,1,0,0,1-1.47-.59l-.25-.82,31.6-18.22a.9.9,0,0,1,.49-.15.57.57,0,0,1,.29.07h0Z" style="fill: rgb(255, 255, 255); transform-origin: 247.46px 72.1791px;" id="eljvfkiac6mq" class="animable"></path></g></g><g id="eljuti4teiv3"><path d="M213.4,132.78l.11.12-2-1.16h0l0,0a.55.55,0,0,1-.19-.21.5.5,0,0,1,0-.13,1,1,0,0,1-.06-.36V85.74a.62.62,0,0,1,0-.13c0-.09,0-.18,0-.28l0-.13a3,3,0,0,1,.17-.41c0-.05,0-.09.07-.13l2.07,1.19a2.27,2.27,0,0,0-.32,1.09v45.28a1.36,1.36,0,0,0,0,.2.36.36,0,0,0,0,.1s0,0,0,.06l0,.07A.54.54,0,0,0,213.4,132.78Z" style="opacity: 0.2; transform-origin: 212.413px 108.78px;" class="animable"></path></g><path d="M248.75,92.76c0,6.82-4.14,14.73-9.26,17.69s-9.25-.19-9.25-7,4.14-14.73,9.25-17.68S248.75,86,248.75,92.76Z" style="fill: rgb(250, 250, 250); transform-origin: 239.495px 98.1149px;" id="elwuc1u27grde" class="animable"></path><path d="M244.54,92.43l-4.39-3.32-.1,0a1.75,1.75,0,0,0-.24-.11l-.19,0-.13,0a.53.53,0,0,0-.12,0,.4.4,0,0,0-.11,0,.19.19,0,0,0-.08,0,1.33,1.33,0,0,0-.24.11l-.15.1a1.24,1.24,0,0,0-.18.22s-.06.05-.08.09l-4.39,8.39a1.09,1.09,0,0,0,.46,1.47,1.13,1.13,0,0,0,.51.12,1.08,1.08,0,0,0,1-.58l2.34-4.47v11.84a1.09,1.09,0,0,0,2.17,0V92.16l2.65,2a1.09,1.09,0,1,0,1.31-1.73Z" style="fill: rgb(94, 9, 241); transform-origin: 239.557px 98.1357px;" id="elju8vtf9wdp" class="animable"></path></g></g><g id="freepik--musical-notes--inject-3" class="animable" style="transform-origin: 262.578px 49.9247px;"><g id="freepik--musical-notes--inject-3" class="animable" style="transform-origin: 262.578px 49.9247px;"><g id="freepik--musical-note--inject-3" class="animable" style="transform-origin: 282.983px 63.2297px;"><path id="freepik--musical-note--inject-3" d="M279.44,53.38l-2.87,11.14a2.82,2.82,0,0,0-.93-.43,3,3,0,1,0,2.17,3.66l2.58-10,10.73-.05h0l-2.54,9.9a3,3,0,0,0-.93-.43,3,3,0,1,0,2.17,3.67h0l4.24-16.53Z" style="fill: rgb(94, 9, 241); transform-origin: 282.983px 63.2297px;" class="animable"></path><g id="freepik--musical-note--inject-3"><path d="M279.44,53.38l-2.87,11.14a2.82,2.82,0,0,0-.93-.43,3,3,0,1,0,2.17,3.66l2.58-10,10.73-.05h0l-2.54,9.9a3,3,0,0,0-.93-.43,3,3,0,1,0,2.17,3.67h0l4.24-16.53Z" style="fill: rgb(255, 255, 255); opacity: 0.45; transform-origin: 282.983px 63.2297px;" class="animable"></path></g></g><g id="freepik--musical-note--inject-3" class="animable" style="transform-origin: 242.168px 50.1638px;"><path id="freepik--musical-note--inject-3" d="M238.62,40.31l-2.88,11.14a3.17,3.17,0,0,0-.93-.43A3,3,0,1,0,237,54.69l2.58-10,10.73-.05h0l-2.54,9.9a2.93,2.93,0,0,0-.93-.43A3,3,0,1,0,249,57.79h0l4.24-16.53Z" style="fill: rgb(94, 9, 241); transform-origin: 242.168px 50.1638px;" class="animable"></path><g id="freepik--musical-note--inject-3"><path d="M238.62,40.31l-2.88,11.14a3.17,3.17,0,0,0-.93-.43A3,3,0,1,0,237,54.69l2.58-10,10.73-.05h0l-2.54,9.9a2.93,2.93,0,0,0-.93-.43A3,3,0,1,0,249,57.79h0l4.24-16.53Z" style="fill: rgb(255, 255, 255); opacity: 0.7; transform-origin: 242.168px 50.1638px;" class="animable"></path></g></g><g id="freepik--musical-note--inject-3" class="animable" style="transform-origin: 268.29px 37.678px;"><path id="freepik--musical-note--inject-3" d="M265.47,32.72a4.61,4.61,0,0,1,1.39-1.31,10.07,10.07,0,0,1,2.37-1,17.45,17.45,0,0,0,3.23-1.14,4.27,4.27,0,0,0,2.22-2.5,4.46,4.46,0,0,1-1.85.74c-1.59.24-3.42-.54-5-.62-2.39-.13-4.09.93-5.93,2.68,1,1.83,2,3.69,3,5.53.79,1.45,1.58,2.89,2.36,4.34.08.14,1,2,1,2a4.24,4.24,0,0,0-1.82.5,3.54,3.54,0,1,0,4.8,1.4Z" style="fill: rgb(94, 9, 241); transform-origin: 268.29px 37.678px;" class="animable"></path><g id="freepik--musical-note--inject-3"><path d="M265.47,32.72a4.61,4.61,0,0,1,1.39-1.31,10.07,10.07,0,0,1,2.37-1,17.45,17.45,0,0,0,3.23-1.14,4.27,4.27,0,0,0,2.22-2.5,4.46,4.46,0,0,1-1.85.74c-1.59.24-3.42-.54-5-.62-2.39-.13-4.09.93-5.93,2.68,1,1.83,2,3.69,3,5.53.79,1.45,1.58,2.89,2.36,4.34.08.14,1,2,1,2a4.24,4.24,0,0,0-1.82.5,3.54,3.54,0,1,0,4.8,1.4Z" style="fill: rgb(255, 255, 255); opacity: 0.2; transform-origin: 268.29px 37.678px;" class="animable"></path></g></g></g></g><g id="freepik--Images--inject-3" class="animable" style="transform-origin: 299.49px 109.395px;"><g id="freepik--images--inject-3" class="animable" style="transform-origin: 299.49px 109.395px;"><path d="M291.88,80.47a53,53,0,0,0,4,33.26s25.63-6,38.86-4.8a45.73,45.73,0,0,1-3.39-31.73C321,74.71,300.86,75.35,291.88,80.47Z" style="fill: rgb(245, 245, 245); transform-origin: 312.772px 94.76px;" id="elj6gknfa6xnb" class="animable"></path><path d="M297.41,110.72a51.37,51.37,0,0,1-3.22-28.51c7.8-3.76,23.82-4.68,34-3a48.94,48.94,0,0,0,2.52,27C319.19,106.22,303.12,109.48,297.41,110.72Z" style="fill: rgb(94, 9, 241); transform-origin: 312.077px 94.5619px;" id="eljxjvkmvo4x" class="animable"></path><g id="el6k45rqyjqpf"><path d="M297.41,110.72a51.37,51.37,0,0,1-3.22-28.51c7.8-3.76,23.82-4.68,34-3a48.94,48.94,0,0,0,2.52,27C319.19,106.22,303.12,109.48,297.41,110.72Z" style="fill: rgb(255, 255, 255); opacity: 0.7; transform-origin: 312.077px 94.5619px;" class="animable"></path></g><g id="elqr01o35jny"><path d="M317.11,84a2.56,2.56,0,0,0-3,1.85,2.34,2.34,0,0,0,2,2.74,2.54,2.54,0,0,0,3-1.85A2.34,2.34,0,0,0,317.11,84Z" style="fill: rgb(255, 255, 255); opacity: 0.7; transform-origin: 316.61px 86.2968px;" class="animable"></path></g><g id="elbdm1aifgxle"><path d="M296,103.12l9.27-13,16.3,11.54L316.1,96l3.88-3.9,7.61,7.48a51.43,51.43,0,0,0,1.64,5.61c-10.83.28-24.76,3-31.19,4.37A45.37,45.37,0,0,1,296,103.12Z" style="fill: rgb(255, 255, 255); opacity: 0.7; transform-origin: 312.615px 99.84px;" class="animable"></path></g><g id="elelbizde2r69"><path d="M291.48,99.44a49.73,49.73,0,0,0,4.44,14.29s4.5-1,10.7-2.18a42.1,42.1,0,0,1-5.16-15A58.43,58.43,0,0,0,291.48,99.44Z" style="opacity: 0.2; transform-origin: 299.05px 105.14px;" class="animable"></path></g><path d="M264.24,114a53,53,0,0,0,16.83,29s21.2-15.59,33.82-19.74a45.73,45.73,0,0,1-15.64-27.82C288.7,97.25,270.46,105.77,264.24,114Z" style="fill: rgb(245, 245, 245); transform-origin: 289.565px 119.22px;" id="elc01elmh0uy" class="animable"></path><path d="M281.25,139.63A51.49,51.49,0,0,1,267,114.7c5.69-6.52,20-13.7,30.09-16.17a49,49,0,0,0,12.94,23.78C299.49,126.9,286,136.24,281.25,139.63Z" style="fill: rgb(94, 9, 241); transform-origin: 288.515px 119.08px;" id="eluy5bkfxgp2h" class="animable"></path><g id="el8879wo1f58v"><path d="M281.25,139.63A51.49,51.49,0,0,1,267,114.7c5.69-6.52,20-13.7,30.09-16.17a49,49,0,0,0,12.94,23.78C299.49,126.9,286,136.24,281.25,139.63Z" style="fill: rgb(255, 255, 255); opacity: 0.7; transform-origin: 288.515px 119.08px;" class="animable"></path></g><g id="el7q859591c55"><path d="M288.81,107.3a2.57,2.57,0,0,0-2,2.88,2.34,2.34,0,0,0,2.92,1.72,2.53,2.53,0,0,0,2-2.88A2.34,2.34,0,0,0,288.81,107.3Z" style="fill: rgb(255, 255, 255); opacity: 0.7; transform-origin: 289.273px 109.6px;" class="animable"></path></g><g id="el3nsj28v5ptq"><path d="M276.91,133.22l3.4-15.57,19.53,4.17-7.24-3.12,2-5.12,9.95,3.87a49.68,49.68,0,0,0,3.71,4.51c-9.84,4.53-21.56,12.52-26.94,16.32A45.7,45.7,0,0,1,276.91,133.22Z" style="fill: rgb(255, 255, 255); opacity: 0.7; transform-origin: 292.585px 125.93px;" class="animable"></path></g></g></g><g id="freepik--Document--inject-3" class="animable" style="transform-origin: 326.79px 156.268px;"><g id="freepik--document--inject-3" class="animable" style="transform-origin: 326.79px 156.268px;"><path d="M334.55,181.08c-10.06,0-20-5.14-23.54-8.61A62.14,62.14,0,0,1,297.81,139c2.07.2,4.14.3,6.17.3,15.37,0,25.35-5.82,28-7.6,3.42,21.56,20.57,34.83,23.53,37-3.26,4.95-9,8.94-17,11.85-.39.15-.79.28-1.19.4A25.79,25.79,0,0,1,334.55,181.08Z" style="fill: rgb(250, 250, 250); transform-origin: 326.66px 156.39px;" id="elkh8ezem0emd" class="animable"></path><path d="M331.63,132.63c3.6,20.41,19.3,33.28,23.19,36.19-3.24,4.65-8.76,8.42-16.45,11.21-.37.14-.74.26-1.12.38a26.4,26.4,0,0,1-2.7.13c-9.86,0-19.59-5-23.11-8.41a61.65,61.65,0,0,1-13-32.51c1.87.16,3.74.24,5.57.24,14.57,0,24.15-5,27.65-7.23m.8-1.85s-10.36,8-28.45,8a64.16,64.16,0,0,1-6.76-.37,63,63,0,0,0,13.41,34.45c3.76,3.68,13.91,8.77,23.92,8.77a25.85,25.85,0,0,0,2.92-.16c.42-.12.85-.27,1.27-.42,6.65-2.41,13.7-6.31,17.56-12.5,0,0-20.49-13.71-23.87-37.77Z" style="fill: rgb(224, 224, 224); transform-origin: 326.79px 156.205px;" id="elw7mdc60w69h" class="animable"></path><path d="M330.61,137.4l3.61,10.82a20.19,20.19,0,0,1-10.64,5l-3.29-11.31A29.44,29.44,0,0,0,330.61,137.4Z" style="fill: rgb(94, 9, 241); transform-origin: 327.255px 145.31px;" id="el6je0jnuzaom" class="animable"></path><g id="eljxelb1wu34r"><path d="M330.61,137.4l3.61,10.82a20.19,20.19,0,0,1-10.64,5l-3.29-11.31A29.44,29.44,0,0,0,330.61,137.4Z" style="fill: rgb(255, 255, 255); opacity: 0.7; transform-origin: 327.255px 145.31px;" class="animable"></path></g><path d="M304.12,144.27a68.09,68.09,0,0,0,14.52-1.42" style="fill: none; stroke: rgb(224, 224, 224); stroke-linecap: round; stroke-linejoin: round; stroke-width: 0.812789px; transform-origin: 311.38px 143.562px;" id="ele3jsutn2q8" class="animable"></path><path d="M305.43,150A68.93,68.93,0,0,0,320,148.3" style="fill: none; stroke: rgb(224, 224, 224); stroke-linecap: round; stroke-linejoin: round; stroke-width: 0.812789px; transform-origin: 312.715px 149.15px;" id="elec7za9qcjdu" class="animable"></path><path d="M307.54,155.7a68.46,68.46,0,0,0,14-1.93" style="fill: none; stroke: rgb(224, 224, 224); stroke-linecap: round; stroke-linejoin: round; stroke-width: 0.812789px; transform-origin: 314.54px 154.735px;" id="elsjtorbimgg" class="animable"></path><path d="M310.34,161.16c10.79-.72,19.56-3.13,25.66-7.77" style="fill: none; stroke: rgb(224, 224, 224); stroke-linecap: round; stroke-linejoin: round; stroke-width: 0.812789px; transform-origin: 323.17px 157.275px;" id="el7dbu5qnjiz6" class="animable"></path><path d="M313.72,166.31c10.77-.95,19.48-3.55,25.49-8.33" style="fill: none; stroke: rgb(224, 224, 224); stroke-linecap: round; stroke-linejoin: round; stroke-width: 0.812789px; transform-origin: 326.465px 162.145px;" id="elaekg9c9ksa9" class="animable"></path><path d="M317.55,171.05c10.76-1.19,19.42-4,25.32-8.89" style="fill: none; stroke: rgb(224, 224, 224); stroke-linecap: round; stroke-linejoin: round; stroke-width: 0.812789px; transform-origin: 330.21px 166.605px;" id="elizg97sc8dz9" class="animable"></path><path d="M321.73,175.26c10.74-1.41,19.34-4.4,25.14-9.43" style="fill: none; stroke: rgb(224, 224, 224); stroke-linecap: round; stroke-linejoin: round; stroke-width: 0.812789px; transform-origin: 334.3px 170.545px;" id="el0jkjsddfoa4r" class="animable"></path><path d="M326.14,178.86c10.72-1.65,19.27-4.82,25-10" style="fill: none; stroke: rgb(224, 224, 224); stroke-linecap: round; stroke-linejoin: round; stroke-width: 0.812789px; transform-origin: 338.64px 173.86px;" id="elfv8gryi8w2j" class="animable"></path><path d="M337.47,181.47c-5.36.25-9-5-9.47-8.61-3.23,2-11.37,3.36-17.37,0C316,178.79,331.3,182.9,337.47,181.47Z" style="fill: rgb(235, 235, 235); transform-origin: 324.05px 177.308px;" id="elxmt6lje90r" class="animable"></path><g id="elbxbgi74obhs"><path d="M330.37,138.75a35.41,35.41,0,0,1-9.05,4l.66,2.49s0-1.23.66-1.44c1.68-.55,3.24-1.18,3.24-1.18s1.67,4.93,1.89,6a1.85,1.85,0,0,1-1.28,2.32l.23.49a22,22,0,0,0,4.42-2.22l-.19-.39s-1.7.66-2.2-.61-1.93-6-1.93-6,2.26-1.13,2.8-1.44a1.33,1.33,0,0,1,1.75.53Z" style="fill: rgb(255, 255, 255); opacity: 0.7; transform-origin: 326.345px 145.09px;" class="animable"></path></g></g></g><g id="freepik--Video--inject-3" class="animable" style="transform-origin: 375.885px 151.695px;"><g id="freepik--video--inject-3" class="animable" style="transform-origin: 375.885px 151.695px;"><path d="M401.88,153.81a53.64,53.64,0,0,0-20.37-27.09s-19.44,18.19-31.62,23.86a46.29,46.29,0,0,1,19,26.09C379.3,173.57,396.6,162.84,401.88,153.81Z" style="fill: rgb(245, 245, 245); transform-origin: 375.885px 151.695px;" id="elz5u6yp6rt3g" class="animable"></path><path d="M381.73,130.1A52,52,0,0,1,399,153.46c-4.94,7.23-18.51,16.15-28.3,19.82A49.53,49.53,0,0,0,354.84,151C364.92,145.07,377.35,134.08,381.73,130.1Z" style="fill: rgb(94, 9, 241); transform-origin: 376.92px 151.69px;" id="elsd1mrs9mqlk" class="animable"></path><g id="elxo1snrosmnj"><path d="M381.73,130.1A52,52,0,0,1,399,153.46c-4.94,7.23-18.51,16.15-28.3,19.82A49.53,49.53,0,0,0,354.84,151C364.92,145.07,377.35,134.08,381.73,130.1Z" style="fill: rgb(255, 255, 255); opacity: 0.7; transform-origin: 376.92px 151.69px;" class="animable"></path></g><g id="elcxyesoqgk7"><path d="M377.93,159.38a20.71,20.71,0,0,0-6.81-8.51,33.7,33.7,0,0,0,12-5.26S384.23,151.46,377.93,159.38Z" style="fill: rgb(255, 255, 255); opacity: 0.7; transform-origin: 377.158px 152.495px;" class="animable"></path></g></g></g><g id="freepik--Cloud--inject-3" class="animable" style="transform-origin: 378.645px 133.618px;"><g id="freepik--Line--inject-3" class="animable" style="transform-origin: 359.705px 168.265px;"><path d="M310.07,229.88a.54.54,0,0,1-.49-.29.56.56,0,0,1,.21-.78l1.26-.73a.57.57,0,0,1,.57,1l-1.26.73A.6.6,0,0,1,310.07,229.88Z" style="fill: rgb(69, 90, 100); transform-origin: 310.705px 228.942px;" id="el90bqgstbgrv" class="animable"></path><path d="M315.47,226.76a.54.54,0,0,1-.49-.29.55.55,0,0,1,.21-.77l2.48-1.44a.57.57,0,0,1,.57,1l-2.48,1.43A.6.6,0,0,1,315.47,226.76Zm6.61-3.82a.58.58,0,0,1-.49-.28.57.57,0,0,1,.21-.78l2.48-1.43a.57.57,0,1,1,.57,1l-2.48,1.43A.51.51,0,0,1,322.08,222.94Zm6.62-3.82a.57.57,0,0,1-.29-1.06l2.48-1.43a.57.57,0,0,1,.57,1L329,219.05A.58.58,0,0,1,328.7,219.12Zm6.61-3.81a.57.57,0,0,1-.28-1.07l2.48-1.43a.56.56,0,0,1,.78.21.58.58,0,0,1-.21.78l-2.48,1.43A.6.6,0,0,1,335.31,215.31Zm6.61-3.82a.59.59,0,0,1-.49-.29.57.57,0,0,1,.21-.78l2.48-1.43a.57.57,0,0,1,.57,1l-2.48,1.43A.6.6,0,0,1,341.92,211.49Zm6.62-3.82a.57.57,0,0,1-.5-.29.58.58,0,0,1,.21-.78l2.48-1.43a.57.57,0,0,1,.78.21.56.56,0,0,1-.21.78l-2.48,1.43A.6.6,0,0,1,348.54,207.67Zm6.61-3.82a.55.55,0,0,1-.49-.28.56.56,0,0,1,.21-.78l2.48-1.44a.57.57,0,0,1,.57,1l-2.49,1.43A.46.46,0,0,1,355.15,203.85Zm6.61-3.82a.57.57,0,0,1-.28-1.06l2.48-1.43a.57.57,0,1,1,.57,1L362.05,200A.59.59,0,0,1,361.76,200Zm6.62-3.82a.57.57,0,0,1-.29-1.06l2.48-1.43a.57.57,0,0,1,.57,1l-2.48,1.43A.58.58,0,0,1,368.38,196.21ZM375,192.4a.56.56,0,0,1-.49-.29.57.57,0,0,1,.2-.78l2.49-1.43a.56.56,0,0,1,.77.21.57.57,0,0,1-.2.78l-2.49,1.43A.54.54,0,0,1,375,192.4Zm6.61-3.82a.56.56,0,0,1-.49-.29.56.56,0,0,1,.21-.78l2.48-1.43a.57.57,0,0,1,.78.21.58.58,0,0,1-.21.78l-2.48,1.43A.6.6,0,0,1,381.6,188.58Zm6.62-3.82a.57.57,0,0,1-.5-.29.56.56,0,0,1,.21-.77l2.48-1.44a.58.58,0,0,1,.78.21.57.57,0,0,1-.21.78l-2.48,1.43A.5.5,0,0,1,388.22,184.76Zm6.61-3.82a.55.55,0,0,1-.49-.28.57.57,0,0,1,.2-.78l2.48-1.43a.57.57,0,1,1,.57,1l-2.48,1.44A.55.55,0,0,1,394.83,180.94Zm6.61-3.82a.57.57,0,0,1-.28-1.06l2.48-1.43a.56.56,0,0,1,.78.21.58.58,0,0,1-.21.78l-2.48,1.43A.59.59,0,0,1,401.44,177.12Z" style="fill: rgb(69, 90, 100); transform-origin: 359.702px 200.655px;" id="el04owa3g215ax" class="animable"></path><path d="M408.06,173.31a.59.59,0,0,1-.5-.29.57.57,0,0,1,.21-.78l1-.57v-1.13a.58.58,0,0,1,.57-.57.57.57,0,0,1,.57.57V172a.58.58,0,0,1-.28.5l-1.27.73A.6.6,0,0,1,408.06,173.31Z" style="fill: rgb(69, 90, 100); transform-origin: 408.697px 171.64px;" id="eld9w5z2u0t7" class="animable"></path><path d="M409.32,166a.57.57,0,0,1-.57-.57v-3a.57.57,0,0,1,.57-.57.56.56,0,0,1,.57.57v3A.56.56,0,0,1,409.32,166Zm0-8.11a.58.58,0,0,1-.57-.57v-3a.57.57,0,0,1,.57-.57.56.56,0,0,1,.57.57v3A.57.57,0,0,1,409.32,157.93Zm0-8.11a.58.58,0,0,1-.57-.57v-3a.58.58,0,0,1,.57-.58.57.57,0,0,1,.57.58v3A.57.57,0,0,1,409.32,149.82Zm0-8.11a.58.58,0,0,1-.57-.57v-3a.58.58,0,0,1,.57-.57.57.57,0,0,1,.57.57v3A.57.57,0,0,1,409.32,141.71Zm0-8.12a.57.57,0,0,1-.57-.57v-3a.58.58,0,0,1,.57-.57.57.57,0,0,1,.57.57v3A.56.56,0,0,1,409.32,133.59Zm0-8.11a.57.57,0,0,1-.57-.57v-3a.57.57,0,0,1,.57-.57.56.56,0,0,1,.57.57v3A.56.56,0,0,1,409.32,125.48Zm0-8.11a.58.58,0,0,1-.57-.57v-3a.57.57,0,0,1,.57-.57.56.56,0,0,1,.57.57v3A.57.57,0,0,1,409.32,117.37Z" style="fill: rgb(69, 90, 100); transform-origin: 409.321px 139.595px;" id="elcvwfp8vzxoi" class="animable"></path><path d="M409.32,109.26a.58.58,0,0,1-.57-.57v-1.47a.58.58,0,0,1,.57-.57.57.57,0,0,1,.57.57v1.47A.57.57,0,0,1,409.32,109.26Z" style="fill: rgb(69, 90, 100); transform-origin: 409.32px 107.955px;" id="elhgupb2c0wn8" class="animable"></path></g><g id="freepik--cloud--inject-3" class="animable" style="transform-origin: 399.61px 80.3716px;"><g id="freepik--cloud--inject-3" class="animable" style="transform-origin: 399.61px 80.3716px;"><g id="elsh8fss4h7a"><path d="M445.41,63.36h0l-.23-.13-.14-.09-5.15-3c0-.12,0-.24,0-.36,0-6.31-2.13-10.74-5.47-12.6h0l-9.89-5.71h0c-2.72-1.57-6.26-1.42-10.14.82a22.91,22.91,0,0,0-4.89,3.87,10.34,10.34,0,0,0-2.14-1.69h0L397.82,39h0c-3.5-2.32-8.18-2.27-13.34.7-10.82,6.25-19.6,23-19.6,37.45a29.79,29.79,0,0,0,.37,4.77l-1.36.78c-6.88,4-12.46,14.64-12.46,23.82h0c0,5.07,1.7,8.69,4.39,10.24h0l10,5.78h0c2.17,1.24,5,1.15,8.05-.63L392,111.45l48.3-27.88c4.14-2.39,7.49-8.79,7.49-14.3h0C447.8,66.39,446.87,64.33,445.41,63.36Z" style="fill: rgb(94, 9, 241); opacity: 0.8; transform-origin: 399.61px 80.365px;" class="animable"></path></g><g id="elvxizri6z8y"><path d="M445.41,63.36h0l-.23-.13-.14-.09-5.15-3c0-.12,0-.24,0-.36,0-6.31-2.13-10.74-5.47-12.6h0l-9.89-5.71h0c-2.72-1.57-6.26-1.42-10.14.82a22.91,22.91,0,0,0-4.89,3.87,10.34,10.34,0,0,0-2.14-1.69h0L397.82,39h0c-3.5-2.32-8.18-2.27-13.34.7-10.82,6.25-19.6,23-19.6,37.45a29.79,29.79,0,0,0,.37,4.77l-1.36.78c-6.88,4-12.46,14.64-12.46,23.82h0c0,5.07,1.7,8.69,4.39,10.24h0l10,5.78h0c2.17,1.24,5,1.15,8.05-.63L392,111.45l48.3-27.88c4.14-2.39,7.49-8.79,7.49-14.3h0C447.8,66.39,446.87,64.33,445.41,63.36Z" style="fill: rgb(255, 255, 255); opacity: 0.2; transform-origin: 399.61px 80.365px;" class="animable"></path></g><g id="eltvnfphkekd"><path d="M434.43,47.2h0c-2.7-1.51-6.21-1.34-10,.88a23.22,23.22,0,0,0-5.13,4.12l-9.07-5.27-.89-.51.22-.23a23.61,23.61,0,0,1,4.89-3.88c3.88-2.23,7.42-2.38,10.14-.81h0Z" style="fill: rgb(255, 255, 255); opacity: 0.35; transform-origin: 421.885px 46.3286px;" class="animable"></path></g><g id="elqksivnyaq7"><path d="M409.52,46.19a9.32,9.32,0,0,1,.67.74l-.89-.51Z" style="fill: rgb(255, 255, 255); opacity: 0.8; transform-origin: 409.745px 46.56px;" class="animable"></path></g><g id="el9twocopo4um"><path d="M407.14,44.36h0c-3.41-1.9-7.83-1.68-12.66,1.11s-9.4,7.84-12.84,13.8l-10-5.75c3.43-6,7.92-11,12.83-13.81,5.15-3,9.84-3,13.34-.7h0Z" style="fill: rgb(255, 255, 255); opacity: 0.35; transform-origin: 389.39px 48.3169px;" class="animable"></path></g><g id="elituqjad8nbl"><path d="M375.23,87.7l-1.35.77c-4.66,2.7-8.74,8.47-10.87,14.77l-10-5.76a30.26,30.26,0,0,1,8.11-12.77l4.11-2.77Z" style="fill: rgb(255, 255, 255); opacity: 0.35; transform-origin: 364.12px 92.59px;" class="animable"></path></g><path d="M440.31,63.62l-.71.41a32,32,0,0,0,.3-4.23c0-11.42-6.95-16.67-15.51-11.72-4,2.29-7.6,6.38-10.34,11.24-.39-13.75-9-20-19.58-13.85-10.82,6.25-19.6,23-19.6,37.45a31.17,31.17,0,0,0,.36,4.78l-1.35.77c-6.88,4-12.47,14.65-12.47,23.83h0c0,9.18,5.59,13.6,12.47,9.62L392,111.45h0l48.3-27.88c4.14-2.39,7.49-8.79,7.49-14.3h0C447.8,63.77,444.45,61.23,440.31,63.62Z" style="fill: rgb(94, 9, 241); transform-origin: 404.6px 83.2442px;" id="elncs4h1qh6o" class="animable"></path><g id="elccg2r19fq9i"><path d="M440.31,63.62l-.71.41a32,32,0,0,0,.3-4.23c0-11.42-6.95-16.67-15.51-11.72-4,2.29-7.6,6.38-10.34,11.24-.39-13.75-9-20-19.58-13.85-10.82,6.25-19.6,23-19.6,37.45a31.17,31.17,0,0,0,.36,4.78l-1.35.77c-6.88,4-12.47,14.65-12.47,23.83h0c0,9.18,5.59,13.6,12.47,9.62L392,111.45h0l48.3-27.88c4.14-2.39,7.49-8.79,7.49-14.3h0C447.8,63.77,444.45,61.23,440.31,63.62Z" style="fill: rgb(255, 255, 255); opacity: 0.7; transform-origin: 404.6px 83.2442px;" class="animable"></path></g><g id="el926u51avgzj"><path d="M369,120.83c-3.07,0-5-3.35-5-8.53,0-8.22,5.12-18.11,11.19-21.61l1.35-.78a2.56,2.56,0,0,0,1.25-2.61h0a28,28,0,0,1-.33-4.38c0-13.6,8.21-29.4,18.32-35.24a13.15,13.15,0,0,1,6.5-2c5.46,0,9,5.25,9.24,13.71h0a2.55,2.55,0,0,0,4.78,1.18h0c2.63-4.65,6-8.3,9.4-10.28a9.86,9.86,0,0,1,4.88-1.52c4.13,0,6.79,4.33,6.79,11a29.38,29.38,0,0,1-.27,3.89h0a2.55,2.55,0,0,0,3.81,2.55l.71-.41a3.61,3.61,0,0,1,1.69-.55c1.36,0,2,2,2,4,0,4.61-2.84,10.14-6.2,12.09L372.6,119.71a7.3,7.3,0,0,1-3.58,1.12Z" style="fill: rgb(255, 255, 255); opacity: 0.7; transform-origin: 404.655px 83.255px;" class="animable"></path></g></g></g></g><defs>     <filter id="active" height="200%">         <feMorphology in="SourceAlpha" result="DILATED" operator="dilate" radius="2"></feMorphology>                <feFlood flood-color="#32DFEC" flood-opacity="1" result="PINK"></feFlood>        <feComposite in="PINK" in2="DILATED" operator="in" result="OUTLINE"></feComposite>        <feMerge>            <feMergeNode in="OUTLINE"></feMergeNode>            <feMergeNode in="SourceGraphic"></feMergeNode>        </feMerge>    </filter>    <filter id="hover" height="200%">        <feMorphology in="SourceAlpha" result="DILATED" operator="dilate" radius="2"></feMorphology>                <feFlood flood-color="#ff0000" flood-opacity="0.5" result="PINK"></feFlood>        <feComposite in="PINK" in2="DILATED" operator="in" result="OUTLINE"></feComposite>        <feMerge>            <feMergeNode in="OUTLINE"></feMergeNode>            <feMergeNode in="SourceGraphic"></feMergeNode>        </feMerge>            <feColorMatrix type="matrix" values="0   0   0   0   0                0   1   0   0   0                0   0   0   0   0                0   0   0   1   0 "></feColorMatrix>    </filter></defs></svg>